%TF.GenerationSoftware,KiCad,Pcbnew,(5.1.6)-1*%
%TF.CreationDate,2022-09-22T09:58:55-04:00*%
%TF.ProjectId,EXT_BATT_3V-6V,4558545f-4241-4545-945f-33562d36562e,rev?*%
%TF.SameCoordinates,Original*%
%TF.FileFunction,Legend,Top*%
%TF.FilePolarity,Positive*%
%FSLAX46Y46*%
G04 Gerber Fmt 4.6, Leading zero omitted, Abs format (unit mm)*
G04 Created by KiCad (PCBNEW (5.1.6)-1) date 2022-09-22 09:58:55*
%MOMM*%
%LPD*%
G01*
G04 APERTURE LIST*
%ADD10C,0.150000*%
%ADD11C,0.250000*%
%ADD12C,0.100000*%
%ADD13C,0.120000*%
G04 APERTURE END LIST*
D10*
X152342857Y-85191071D02*
X152450000Y-85226785D01*
X152628571Y-85226785D01*
X152700000Y-85191071D01*
X152735714Y-85155357D01*
X152771428Y-85083928D01*
X152771428Y-85012500D01*
X152735714Y-84941071D01*
X152700000Y-84905357D01*
X152628571Y-84869642D01*
X152485714Y-84833928D01*
X152414285Y-84798214D01*
X152378571Y-84762500D01*
X152342857Y-84691071D01*
X152342857Y-84619642D01*
X152378571Y-84548214D01*
X152414285Y-84512500D01*
X152485714Y-84476785D01*
X152664285Y-84476785D01*
X152771428Y-84512500D01*
X153378571Y-85191071D02*
X153307142Y-85226785D01*
X153164285Y-85226785D01*
X153092857Y-85191071D01*
X153057142Y-85119642D01*
X153057142Y-84833928D01*
X153092857Y-84762500D01*
X153164285Y-84726785D01*
X153307142Y-84726785D01*
X153378571Y-84762500D01*
X153414285Y-84833928D01*
X153414285Y-84905357D01*
X153057142Y-84976785D01*
X154021428Y-85191071D02*
X153950000Y-85226785D01*
X153807142Y-85226785D01*
X153735714Y-85191071D01*
X153700000Y-85119642D01*
X153700000Y-84833928D01*
X153735714Y-84762500D01*
X153807142Y-84726785D01*
X153950000Y-84726785D01*
X154021428Y-84762500D01*
X154057142Y-84833928D01*
X154057142Y-84905357D01*
X153700000Y-84976785D01*
X151950000Y-86001785D02*
X151950000Y-86608928D01*
X151914285Y-86680357D01*
X151878571Y-86716071D01*
X151807142Y-86751785D01*
X151700000Y-86751785D01*
X151628571Y-86716071D01*
X151950000Y-86466071D02*
X151878571Y-86501785D01*
X151735714Y-86501785D01*
X151664285Y-86466071D01*
X151628571Y-86430357D01*
X151592857Y-86358928D01*
X151592857Y-86144642D01*
X151628571Y-86073214D01*
X151664285Y-86037500D01*
X151735714Y-86001785D01*
X151878571Y-86001785D01*
X151950000Y-86037500D01*
X152307142Y-86501785D02*
X152307142Y-86001785D01*
X152307142Y-85751785D02*
X152271428Y-85787500D01*
X152307142Y-85823214D01*
X152342857Y-85787500D01*
X152307142Y-85751785D01*
X152307142Y-85823214D01*
X152557142Y-86001785D02*
X152842857Y-86001785D01*
X152664285Y-85751785D02*
X152664285Y-86394642D01*
X152700000Y-86466071D01*
X152771428Y-86501785D01*
X152842857Y-86501785D01*
X153092857Y-86501785D02*
X153092857Y-85751785D01*
X153414285Y-86501785D02*
X153414285Y-86108928D01*
X153378571Y-86037500D01*
X153307142Y-86001785D01*
X153200000Y-86001785D01*
X153128571Y-86037500D01*
X153092857Y-86073214D01*
X154092857Y-86001785D02*
X154092857Y-86501785D01*
X153771428Y-86001785D02*
X153771428Y-86394642D01*
X153807142Y-86466071D01*
X153878571Y-86501785D01*
X153985714Y-86501785D01*
X154057142Y-86466071D01*
X154092857Y-86430357D01*
X154450000Y-86501785D02*
X154450000Y-85751785D01*
X154450000Y-86037500D02*
X154521428Y-86001785D01*
X154664285Y-86001785D01*
X154735714Y-86037500D01*
X154771428Y-86073214D01*
X154807142Y-86144642D01*
X154807142Y-86358928D01*
X154771428Y-86430357D01*
X154735714Y-86466071D01*
X154664285Y-86501785D01*
X154521428Y-86501785D01*
X154450000Y-86466071D01*
X152485714Y-87276785D02*
X152771428Y-87276785D01*
X152592857Y-87776785D02*
X152592857Y-87133928D01*
X152628571Y-87062500D01*
X152700000Y-87026785D01*
X152771428Y-87026785D01*
X153128571Y-87776785D02*
X153057142Y-87741071D01*
X153021428Y-87705357D01*
X152985714Y-87633928D01*
X152985714Y-87419642D01*
X153021428Y-87348214D01*
X153057142Y-87312500D01*
X153128571Y-87276785D01*
X153235714Y-87276785D01*
X153307142Y-87312500D01*
X153342857Y-87348214D01*
X153378571Y-87419642D01*
X153378571Y-87633928D01*
X153342857Y-87705357D01*
X153307142Y-87741071D01*
X153235714Y-87776785D01*
X153128571Y-87776785D01*
X153700000Y-87776785D02*
X153700000Y-87276785D01*
X153700000Y-87419642D02*
X153735714Y-87348214D01*
X153771428Y-87312500D01*
X153842857Y-87276785D01*
X153914285Y-87276785D01*
X150985714Y-88551785D02*
X150985714Y-89194642D01*
X150950000Y-89266071D01*
X150878571Y-89301785D01*
X150842857Y-89301785D01*
X150985714Y-88301785D02*
X150950000Y-88337500D01*
X150985714Y-88373214D01*
X151021428Y-88337500D01*
X150985714Y-88301785D01*
X150985714Y-88373214D01*
X151664285Y-88551785D02*
X151664285Y-89051785D01*
X151342857Y-88551785D02*
X151342857Y-88944642D01*
X151378571Y-89016071D01*
X151450000Y-89051785D01*
X151557142Y-89051785D01*
X151628571Y-89016071D01*
X151664285Y-88980357D01*
X152021428Y-89051785D02*
X152021428Y-88551785D01*
X152021428Y-88623214D02*
X152057142Y-88587500D01*
X152128571Y-88551785D01*
X152235714Y-88551785D01*
X152307142Y-88587500D01*
X152342857Y-88658928D01*
X152342857Y-89051785D01*
X152342857Y-88658928D02*
X152378571Y-88587500D01*
X152450000Y-88551785D01*
X152557142Y-88551785D01*
X152628571Y-88587500D01*
X152664285Y-88658928D01*
X152664285Y-89051785D01*
X153021428Y-88551785D02*
X153021428Y-89301785D01*
X153021428Y-88587500D02*
X153092857Y-88551785D01*
X153235714Y-88551785D01*
X153307142Y-88587500D01*
X153342857Y-88623214D01*
X153378571Y-88694642D01*
X153378571Y-88908928D01*
X153342857Y-88980357D01*
X153307142Y-89016071D01*
X153235714Y-89051785D01*
X153092857Y-89051785D01*
X153021428Y-89016071D01*
X153985714Y-89016071D02*
X153914285Y-89051785D01*
X153771428Y-89051785D01*
X153700000Y-89016071D01*
X153664285Y-88944642D01*
X153664285Y-88658928D01*
X153700000Y-88587500D01*
X153771428Y-88551785D01*
X153914285Y-88551785D01*
X153985714Y-88587500D01*
X154021428Y-88658928D01*
X154021428Y-88730357D01*
X153664285Y-88801785D01*
X154342857Y-89051785D02*
X154342857Y-88551785D01*
X154342857Y-88694642D02*
X154378571Y-88623214D01*
X154414285Y-88587500D01*
X154485714Y-88551785D01*
X154557142Y-88551785D01*
X154771428Y-89016071D02*
X154842857Y-89051785D01*
X154985714Y-89051785D01*
X155057142Y-89016071D01*
X155092857Y-88944642D01*
X155092857Y-88908928D01*
X155057142Y-88837500D01*
X154985714Y-88801785D01*
X154878571Y-88801785D01*
X154807142Y-88766071D01*
X154771428Y-88694642D01*
X154771428Y-88658928D01*
X154807142Y-88587500D01*
X154878571Y-88551785D01*
X154985714Y-88551785D01*
X155057142Y-88587500D01*
X155414285Y-88980357D02*
X155450000Y-89016071D01*
X155414285Y-89051785D01*
X155378571Y-89016071D01*
X155414285Y-88980357D01*
X155414285Y-89051785D01*
X155414285Y-88766071D02*
X155378571Y-88337500D01*
X155414285Y-88301785D01*
X155450000Y-88337500D01*
X155414285Y-88766071D01*
X155414285Y-88301785D01*
D11*
X167289285Y-92071428D02*
X167289285Y-91671428D01*
X167917857Y-91500000D02*
X167917857Y-92071428D01*
X166717857Y-92071428D01*
X166717857Y-91500000D01*
X166717857Y-91100000D02*
X167917857Y-90300000D01*
X166717857Y-90300000D02*
X167917857Y-91100000D01*
X166717857Y-90014285D02*
X166717857Y-89328571D01*
X167917857Y-89671428D02*
X166717857Y-89671428D01*
X168032142Y-89214285D02*
X168032142Y-88300000D01*
X167289285Y-87614285D02*
X167346428Y-87442857D01*
X167403571Y-87385714D01*
X167517857Y-87328571D01*
X167689285Y-87328571D01*
X167803571Y-87385714D01*
X167860714Y-87442857D01*
X167917857Y-87557142D01*
X167917857Y-88014285D01*
X166717857Y-88014285D01*
X166717857Y-87614285D01*
X166775000Y-87500000D01*
X166832142Y-87442857D01*
X166946428Y-87385714D01*
X167060714Y-87385714D01*
X167175000Y-87442857D01*
X167232142Y-87500000D01*
X167289285Y-87614285D01*
X167289285Y-88014285D01*
X167575000Y-86871428D02*
X167575000Y-86300000D01*
X167917857Y-86985714D02*
X166717857Y-86585714D01*
X167917857Y-86185714D01*
X166717857Y-85957142D02*
X166717857Y-85271428D01*
X167917857Y-85614285D02*
X166717857Y-85614285D01*
X166717857Y-85042857D02*
X166717857Y-84357142D01*
X167917857Y-84700000D02*
X166717857Y-84700000D01*
X168767857Y-90528571D02*
X168767857Y-89785714D01*
X169225000Y-90185714D01*
X169225000Y-90014285D01*
X169282142Y-89900000D01*
X169339285Y-89842857D01*
X169453571Y-89785714D01*
X169739285Y-89785714D01*
X169853571Y-89842857D01*
X169910714Y-89900000D01*
X169967857Y-90014285D01*
X169967857Y-90357142D01*
X169910714Y-90471428D01*
X169853571Y-90528571D01*
X169510714Y-89271428D02*
X169510714Y-88357142D01*
X168767857Y-87271428D02*
X168767857Y-87500000D01*
X168825000Y-87614285D01*
X168882142Y-87671428D01*
X169053571Y-87785714D01*
X169282142Y-87842857D01*
X169739285Y-87842857D01*
X169853571Y-87785714D01*
X169910714Y-87728571D01*
X169967857Y-87614285D01*
X169967857Y-87385714D01*
X169910714Y-87271428D01*
X169853571Y-87214285D01*
X169739285Y-87157142D01*
X169453571Y-87157142D01*
X169339285Y-87214285D01*
X169282142Y-87271428D01*
X169225000Y-87385714D01*
X169225000Y-87614285D01*
X169282142Y-87728571D01*
X169339285Y-87785714D01*
X169453571Y-87842857D01*
X168767857Y-86814285D02*
X169967857Y-86414285D01*
X168767857Y-86014285D01*
D10*
X158404761Y-87757142D02*
X158357142Y-87804761D01*
X158214285Y-87852380D01*
X158119047Y-87852380D01*
X157976190Y-87804761D01*
X157880952Y-87709523D01*
X157833333Y-87614285D01*
X157785714Y-87423809D01*
X157785714Y-87280952D01*
X157833333Y-87090476D01*
X157880952Y-86995238D01*
X157976190Y-86900000D01*
X158119047Y-86852380D01*
X158214285Y-86852380D01*
X158357142Y-86900000D01*
X158404761Y-86947619D01*
X159404761Y-87852380D02*
X159071428Y-87376190D01*
X158833333Y-87852380D02*
X158833333Y-86852380D01*
X159214285Y-86852380D01*
X159309523Y-86900000D01*
X159357142Y-86947619D01*
X159404761Y-87042857D01*
X159404761Y-87185714D01*
X159357142Y-87280952D01*
X159309523Y-87328571D01*
X159214285Y-87376190D01*
X158833333Y-87376190D01*
X160357142Y-87852380D02*
X159785714Y-87852380D01*
X160071428Y-87852380D02*
X160071428Y-86852380D01*
X159976190Y-86995238D01*
X159880952Y-87090476D01*
X159785714Y-87138095D01*
X160738095Y-86947619D02*
X160785714Y-86900000D01*
X160880952Y-86852380D01*
X161119047Y-86852380D01*
X161214285Y-86900000D01*
X161261904Y-86947619D01*
X161309523Y-87042857D01*
X161309523Y-87138095D01*
X161261904Y-87280952D01*
X160690476Y-87852380D01*
X161309523Y-87852380D01*
X161690476Y-86947619D02*
X161738095Y-86900000D01*
X161833333Y-86852380D01*
X162071428Y-86852380D01*
X162166666Y-86900000D01*
X162214285Y-86947619D01*
X162261904Y-87042857D01*
X162261904Y-87138095D01*
X162214285Y-87280952D01*
X161642857Y-87852380D01*
X162261904Y-87852380D01*
X162880952Y-86852380D02*
X162976190Y-86852380D01*
X163071428Y-86900000D01*
X163119047Y-86947619D01*
X163166666Y-87042857D01*
X163214285Y-87233333D01*
X163214285Y-87471428D01*
X163166666Y-87661904D01*
X163119047Y-87757142D01*
X163071428Y-87804761D01*
X162976190Y-87852380D01*
X162880952Y-87852380D01*
X162785714Y-87804761D01*
X162738095Y-87757142D01*
X162690476Y-87661904D01*
X162642857Y-87471428D01*
X162642857Y-87233333D01*
X162690476Y-87042857D01*
X162738095Y-86947619D01*
X162785714Y-86900000D01*
X162880952Y-86852380D01*
X163819047Y-94571428D02*
X164580952Y-94571428D01*
X156219047Y-94571428D02*
X156980952Y-94571428D01*
X156600000Y-94952380D02*
X156600000Y-94190476D01*
X157607142Y-84616071D02*
X158178571Y-84616071D01*
X159000000Y-84401785D02*
X159285714Y-84401785D01*
X159107142Y-84151785D02*
X159107142Y-84794642D01*
X159142857Y-84866071D01*
X159214285Y-84901785D01*
X159285714Y-84901785D01*
X159821428Y-84866071D02*
X159750000Y-84901785D01*
X159607142Y-84901785D01*
X159535714Y-84866071D01*
X159500000Y-84794642D01*
X159500000Y-84508928D01*
X159535714Y-84437500D01*
X159607142Y-84401785D01*
X159750000Y-84401785D01*
X159821428Y-84437500D01*
X159857142Y-84508928D01*
X159857142Y-84580357D01*
X159500000Y-84651785D01*
X160178571Y-84901785D02*
X160178571Y-84401785D01*
X160178571Y-84544642D02*
X160214285Y-84473214D01*
X160250000Y-84437500D01*
X160321428Y-84401785D01*
X160392857Y-84401785D01*
X160642857Y-84901785D02*
X160642857Y-84401785D01*
X160642857Y-84473214D02*
X160678571Y-84437500D01*
X160750000Y-84401785D01*
X160857142Y-84401785D01*
X160928571Y-84437500D01*
X160964285Y-84508928D01*
X160964285Y-84901785D01*
X160964285Y-84508928D02*
X161000000Y-84437500D01*
X161071428Y-84401785D01*
X161178571Y-84401785D01*
X161250000Y-84437500D01*
X161285714Y-84508928D01*
X161285714Y-84901785D01*
X161642857Y-84901785D02*
X161642857Y-84401785D01*
X161642857Y-84151785D02*
X161607142Y-84187500D01*
X161642857Y-84223214D01*
X161678571Y-84187500D01*
X161642857Y-84151785D01*
X161642857Y-84223214D01*
X162000000Y-84401785D02*
X162000000Y-84901785D01*
X162000000Y-84473214D02*
X162035714Y-84437500D01*
X162107142Y-84401785D01*
X162214285Y-84401785D01*
X162285714Y-84437500D01*
X162321428Y-84508928D01*
X162321428Y-84901785D01*
X163000000Y-84901785D02*
X163000000Y-84508928D01*
X162964285Y-84437500D01*
X162892857Y-84401785D01*
X162750000Y-84401785D01*
X162678571Y-84437500D01*
X163000000Y-84866071D02*
X162928571Y-84901785D01*
X162750000Y-84901785D01*
X162678571Y-84866071D01*
X162642857Y-84794642D01*
X162642857Y-84723214D01*
X162678571Y-84651785D01*
X162750000Y-84616071D01*
X162928571Y-84616071D01*
X163000000Y-84580357D01*
X163464285Y-84901785D02*
X163392857Y-84866071D01*
X163357142Y-84794642D01*
X163357142Y-84151785D01*
X159589285Y-86176785D02*
X159589285Y-85426785D01*
X159589285Y-86141071D02*
X159517857Y-86176785D01*
X159375000Y-86176785D01*
X159303571Y-86141071D01*
X159267857Y-86105357D01*
X159232142Y-86033928D01*
X159232142Y-85819642D01*
X159267857Y-85748214D01*
X159303571Y-85712500D01*
X159375000Y-85676785D01*
X159517857Y-85676785D01*
X159589285Y-85712500D01*
X160053571Y-86176785D02*
X159982142Y-86141071D01*
X159946428Y-86105357D01*
X159910714Y-86033928D01*
X159910714Y-85819642D01*
X159946428Y-85748214D01*
X159982142Y-85712500D01*
X160053571Y-85676785D01*
X160160714Y-85676785D01*
X160232142Y-85712500D01*
X160267857Y-85748214D01*
X160303571Y-85819642D01*
X160303571Y-86033928D01*
X160267857Y-86105357D01*
X160232142Y-86141071D01*
X160160714Y-86176785D01*
X160053571Y-86176785D01*
X160553571Y-85676785D02*
X160696428Y-86176785D01*
X160839285Y-85819642D01*
X160982142Y-86176785D01*
X161125000Y-85676785D01*
X161410714Y-85676785D02*
X161410714Y-86176785D01*
X161410714Y-85748214D02*
X161446428Y-85712500D01*
X161517857Y-85676785D01*
X161625000Y-85676785D01*
X161696428Y-85712500D01*
X161732142Y-85783928D01*
X161732142Y-86176785D01*
X154295238Y-77327380D02*
X154295238Y-76327380D01*
X154533333Y-76327380D01*
X154676190Y-76375000D01*
X154771428Y-76470238D01*
X154819047Y-76565476D01*
X154866666Y-76755952D01*
X154866666Y-76898809D01*
X154819047Y-77089285D01*
X154771428Y-77184523D01*
X154676190Y-77279761D01*
X154533333Y-77327380D01*
X154295238Y-77327380D01*
X155723809Y-76660714D02*
X155723809Y-77327380D01*
X155295238Y-76660714D02*
X155295238Y-77184523D01*
X155342857Y-77279761D01*
X155438095Y-77327380D01*
X155580952Y-77327380D01*
X155676190Y-77279761D01*
X155723809Y-77232142D01*
X156628571Y-77327380D02*
X156628571Y-76803571D01*
X156580952Y-76708333D01*
X156485714Y-76660714D01*
X156295238Y-76660714D01*
X156200000Y-76708333D01*
X156628571Y-77279761D02*
X156533333Y-77327380D01*
X156295238Y-77327380D01*
X156200000Y-77279761D01*
X156152380Y-77184523D01*
X156152380Y-77089285D01*
X156200000Y-76994047D01*
X156295238Y-76946428D01*
X156533333Y-76946428D01*
X156628571Y-76898809D01*
X157247619Y-77327380D02*
X157152380Y-77279761D01*
X157104761Y-77184523D01*
X157104761Y-76327380D01*
X158723809Y-76803571D02*
X158866666Y-76851190D01*
X158914285Y-76898809D01*
X158961904Y-76994047D01*
X158961904Y-77136904D01*
X158914285Y-77232142D01*
X158866666Y-77279761D01*
X158771428Y-77327380D01*
X158390476Y-77327380D01*
X158390476Y-76327380D01*
X158723809Y-76327380D01*
X158819047Y-76375000D01*
X158866666Y-76422619D01*
X158914285Y-76517857D01*
X158914285Y-76613095D01*
X158866666Y-76708333D01*
X158819047Y-76755952D01*
X158723809Y-76803571D01*
X158390476Y-76803571D01*
X159819047Y-77327380D02*
X159819047Y-76803571D01*
X159771428Y-76708333D01*
X159676190Y-76660714D01*
X159485714Y-76660714D01*
X159390476Y-76708333D01*
X159819047Y-77279761D02*
X159723809Y-77327380D01*
X159485714Y-77327380D01*
X159390476Y-77279761D01*
X159342857Y-77184523D01*
X159342857Y-77089285D01*
X159390476Y-76994047D01*
X159485714Y-76946428D01*
X159723809Y-76946428D01*
X159819047Y-76898809D01*
X160152380Y-76660714D02*
X160533333Y-76660714D01*
X160295238Y-76327380D02*
X160295238Y-77184523D01*
X160342857Y-77279761D01*
X160438095Y-77327380D01*
X160533333Y-77327380D01*
X160723809Y-76660714D02*
X161104761Y-76660714D01*
X160866666Y-76327380D02*
X160866666Y-77184523D01*
X160914285Y-77279761D01*
X161009523Y-77327380D01*
X161104761Y-77327380D01*
X161819047Y-77279761D02*
X161723809Y-77327380D01*
X161533333Y-77327380D01*
X161438095Y-77279761D01*
X161390476Y-77184523D01*
X161390476Y-76803571D01*
X161438095Y-76708333D01*
X161533333Y-76660714D01*
X161723809Y-76660714D01*
X161819047Y-76708333D01*
X161866666Y-76803571D01*
X161866666Y-76898809D01*
X161390476Y-76994047D01*
X162295238Y-77327380D02*
X162295238Y-76660714D01*
X162295238Y-76851190D02*
X162342857Y-76755952D01*
X162390476Y-76708333D01*
X162485714Y-76660714D01*
X162580952Y-76660714D01*
X162819047Y-76660714D02*
X163057142Y-77327380D01*
X163295238Y-76660714D02*
X163057142Y-77327380D01*
X162961904Y-77565476D01*
X162914285Y-77613095D01*
X162819047Y-77660714D01*
X164723809Y-77708333D02*
X164676190Y-77660714D01*
X164580952Y-77517857D01*
X164533333Y-77422619D01*
X164485714Y-77279761D01*
X164438095Y-77041666D01*
X164438095Y-76851190D01*
X164485714Y-76613095D01*
X164533333Y-76470238D01*
X164580952Y-76375000D01*
X164676190Y-76232142D01*
X164723809Y-76184523D01*
X165533333Y-76327380D02*
X165342857Y-76327380D01*
X165247619Y-76375000D01*
X165200000Y-76422619D01*
X165104761Y-76565476D01*
X165057142Y-76755952D01*
X165057142Y-77136904D01*
X165104761Y-77232142D01*
X165152380Y-77279761D01*
X165247619Y-77327380D01*
X165438095Y-77327380D01*
X165533333Y-77279761D01*
X165580952Y-77232142D01*
X165628571Y-77136904D01*
X165628571Y-76898809D01*
X165580952Y-76803571D01*
X165533333Y-76755952D01*
X165438095Y-76708333D01*
X165247619Y-76708333D01*
X165152380Y-76755952D01*
X165104761Y-76803571D01*
X165057142Y-76898809D01*
X165914285Y-76327380D02*
X166247619Y-77327380D01*
X166580952Y-76327380D01*
X166819047Y-77708333D02*
X166866666Y-77660714D01*
X166961904Y-77517857D01*
X167009523Y-77422619D01*
X167057142Y-77279761D01*
X167104761Y-77041666D01*
X167104761Y-76851190D01*
X167057142Y-76613095D01*
X167009523Y-76470238D01*
X166961904Y-76375000D01*
X166866666Y-76232142D01*
X166819047Y-76184523D01*
X155580952Y-78977380D02*
X155580952Y-77977380D01*
X155961904Y-77977380D01*
X156057142Y-78025000D01*
X156104761Y-78072619D01*
X156152380Y-78167857D01*
X156152380Y-78310714D01*
X156104761Y-78405952D01*
X156057142Y-78453571D01*
X155961904Y-78501190D01*
X155580952Y-78501190D01*
X156723809Y-78977380D02*
X156628571Y-78929761D01*
X156580952Y-78882142D01*
X156533333Y-78786904D01*
X156533333Y-78501190D01*
X156580952Y-78405952D01*
X156628571Y-78358333D01*
X156723809Y-78310714D01*
X156866666Y-78310714D01*
X156961904Y-78358333D01*
X157009523Y-78405952D01*
X157057142Y-78501190D01*
X157057142Y-78786904D01*
X157009523Y-78882142D01*
X156961904Y-78929761D01*
X156866666Y-78977380D01*
X156723809Y-78977380D01*
X157485714Y-78310714D02*
X157485714Y-79310714D01*
X157485714Y-78358333D02*
X157580952Y-78310714D01*
X157771428Y-78310714D01*
X157866666Y-78358333D01*
X157914285Y-78405952D01*
X157961904Y-78501190D01*
X157961904Y-78786904D01*
X157914285Y-78882142D01*
X157866666Y-78929761D01*
X157771428Y-78977380D01*
X157580952Y-78977380D01*
X157485714Y-78929761D01*
X158819047Y-78310714D02*
X158819047Y-78977380D01*
X158390476Y-78310714D02*
X158390476Y-78834523D01*
X158438095Y-78929761D01*
X158533333Y-78977380D01*
X158676190Y-78977380D01*
X158771428Y-78929761D01*
X158819047Y-78882142D01*
X159438095Y-78977380D02*
X159342857Y-78929761D01*
X159295238Y-78834523D01*
X159295238Y-77977380D01*
X160247619Y-78977380D02*
X160247619Y-78453571D01*
X160200000Y-78358333D01*
X160104761Y-78310714D01*
X159914285Y-78310714D01*
X159819047Y-78358333D01*
X160247619Y-78929761D02*
X160152380Y-78977380D01*
X159914285Y-78977380D01*
X159819047Y-78929761D01*
X159771428Y-78834523D01*
X159771428Y-78739285D01*
X159819047Y-78644047D01*
X159914285Y-78596428D01*
X160152380Y-78596428D01*
X160247619Y-78548809D01*
X160580952Y-78310714D02*
X160961904Y-78310714D01*
X160723809Y-77977380D02*
X160723809Y-78834523D01*
X160771428Y-78929761D01*
X160866666Y-78977380D01*
X160961904Y-78977380D01*
X161676190Y-78929761D02*
X161580952Y-78977380D01*
X161390476Y-78977380D01*
X161295238Y-78929761D01*
X161247619Y-78834523D01*
X161247619Y-78453571D01*
X161295238Y-78358333D01*
X161390476Y-78310714D01*
X161580952Y-78310714D01*
X161676190Y-78358333D01*
X161723809Y-78453571D01*
X161723809Y-78548809D01*
X161247619Y-78644047D01*
X163247619Y-78453571D02*
X163390476Y-78501190D01*
X163438095Y-78548809D01*
X163485714Y-78644047D01*
X163485714Y-78786904D01*
X163438095Y-78882142D01*
X163390476Y-78929761D01*
X163295238Y-78977380D01*
X162914285Y-78977380D01*
X162914285Y-77977380D01*
X163247619Y-77977380D01*
X163342857Y-78025000D01*
X163390476Y-78072619D01*
X163438095Y-78167857D01*
X163438095Y-78263095D01*
X163390476Y-78358333D01*
X163342857Y-78405952D01*
X163247619Y-78453571D01*
X162914285Y-78453571D01*
X164057142Y-78977380D02*
X163961904Y-78929761D01*
X163914285Y-78882142D01*
X163866666Y-78786904D01*
X163866666Y-78501190D01*
X163914285Y-78405952D01*
X163961904Y-78358333D01*
X164057142Y-78310714D01*
X164200000Y-78310714D01*
X164295238Y-78358333D01*
X164342857Y-78405952D01*
X164390476Y-78501190D01*
X164390476Y-78786904D01*
X164342857Y-78882142D01*
X164295238Y-78929761D01*
X164200000Y-78977380D01*
X164057142Y-78977380D01*
X164676190Y-78310714D02*
X165057142Y-78310714D01*
X164819047Y-77977380D02*
X164819047Y-78834523D01*
X164866666Y-78929761D01*
X164961904Y-78977380D01*
X165057142Y-78977380D01*
X165390476Y-78977380D02*
X165390476Y-77977380D01*
X165819047Y-78977380D02*
X165819047Y-78453571D01*
X165771428Y-78358333D01*
X165676190Y-78310714D01*
X165533333Y-78310714D01*
X165438095Y-78358333D01*
X165390476Y-78405952D01*
D12*
%TO.C,H2*%
X155000000Y-87000000D02*
X155500000Y-86450000D01*
X156000000Y-87800000D02*
X155000000Y-87000000D01*
X156500000Y-87250000D02*
X156000000Y-87800000D01*
X165000000Y-87800000D02*
X164500000Y-87250000D01*
X166000000Y-87000000D02*
X165000000Y-87800000D01*
X165500000Y-86450000D02*
X166000000Y-87000000D01*
D13*
%TO.C,J1*%
X155370000Y-106390000D02*
X155370000Y-97760000D01*
X155488095Y-106390000D02*
X155488095Y-97760000D01*
X155606190Y-106390000D02*
X155606190Y-97760000D01*
X155724285Y-106390000D02*
X155724285Y-97760000D01*
X155842380Y-106390000D02*
X155842380Y-97760000D01*
X155960475Y-106390000D02*
X155960475Y-97760000D01*
X156078570Y-106390000D02*
X156078570Y-97760000D01*
X156196665Y-106390000D02*
X156196665Y-97760000D01*
X156314760Y-106390000D02*
X156314760Y-97760000D01*
X156432855Y-106390000D02*
X156432855Y-97760000D01*
X156550950Y-106390000D02*
X156550950Y-97760000D01*
X156669045Y-106390000D02*
X156669045Y-97760000D01*
X156787140Y-106390000D02*
X156787140Y-97760000D01*
X156905235Y-106390000D02*
X156905235Y-97760000D01*
X157023330Y-106390000D02*
X157023330Y-97760000D01*
X157141425Y-106390000D02*
X157141425Y-97760000D01*
X157259520Y-106390000D02*
X157259520Y-97760000D01*
X157377615Y-106390000D02*
X157377615Y-97760000D01*
X157495710Y-106390000D02*
X157495710Y-97760000D01*
X157613805Y-106390000D02*
X157613805Y-97760000D01*
X157731900Y-106390000D02*
X157731900Y-97760000D01*
X156220000Y-97760000D02*
X156220000Y-97410000D01*
X156940000Y-97760000D02*
X156940000Y-97410000D01*
X158760000Y-97760000D02*
X158760000Y-97350000D01*
X159480000Y-97760000D02*
X159480000Y-97350000D01*
X161300000Y-97760000D02*
X161300000Y-97350000D01*
X162020000Y-97760000D02*
X162020000Y-97350000D01*
X163840000Y-97760000D02*
X163840000Y-97350000D01*
X164560000Y-97760000D02*
X164560000Y-97350000D01*
X157850000Y-106390000D02*
X157850000Y-97760000D01*
X160390000Y-106390000D02*
X160390000Y-97760000D01*
X162930000Y-106390000D02*
X162930000Y-97760000D01*
X155250000Y-106390000D02*
X155250000Y-97760000D01*
X155250000Y-97760000D02*
X165530000Y-97760000D01*
X165530000Y-106390000D02*
X165530000Y-97760000D01*
X155250000Y-106390000D02*
X165530000Y-106390000D01*
X155250000Y-95190000D02*
X156580000Y-95190000D01*
X155250000Y-96300000D02*
X155250000Y-95190000D01*
%TO.C,J2*%
X154730000Y-92430000D02*
X154730000Y-91100000D01*
X156060000Y-92430000D02*
X154730000Y-92430000D01*
X157330000Y-92430000D02*
X157330000Y-89770000D01*
X157330000Y-89770000D02*
X159930000Y-89770000D01*
X157330000Y-92430000D02*
X159930000Y-92430000D01*
X159930000Y-92430000D02*
X159930000Y-89770000D01*
%TO.C,J3*%
X166230000Y-92430000D02*
X166230000Y-89770000D01*
X163630000Y-92430000D02*
X166230000Y-92430000D01*
X163630000Y-89770000D02*
X166230000Y-89770000D01*
X163630000Y-92430000D02*
X163630000Y-89770000D01*
X162360000Y-92430000D02*
X161030000Y-92430000D01*
X161030000Y-92430000D02*
X161030000Y-91100000D01*
%TO.C,J1*%
D10*
X153262380Y-101013333D02*
X153976666Y-101013333D01*
X154119523Y-101060952D01*
X154214761Y-101156190D01*
X154262380Y-101299047D01*
X154262380Y-101394285D01*
X154262380Y-100013333D02*
X154262380Y-100584761D01*
X154262380Y-100299047D02*
X153262380Y-100299047D01*
X153405238Y-100394285D01*
X153500476Y-100489523D01*
X153548095Y-100584761D01*
%TO.C,J2*%
X156966666Y-92652380D02*
X156966666Y-93366666D01*
X156919047Y-93509523D01*
X156823809Y-93604761D01*
X156680952Y-93652380D01*
X156585714Y-93652380D01*
X157395238Y-92747619D02*
X157442857Y-92700000D01*
X157538095Y-92652380D01*
X157776190Y-92652380D01*
X157871428Y-92700000D01*
X157919047Y-92747619D01*
X157966666Y-92842857D01*
X157966666Y-92938095D01*
X157919047Y-93080952D01*
X157347619Y-93652380D01*
X157966666Y-93652380D01*
%TO.C,J3*%
X163266666Y-92652380D02*
X163266666Y-93366666D01*
X163219047Y-93509523D01*
X163123809Y-93604761D01*
X162980952Y-93652380D01*
X162885714Y-93652380D01*
X163647619Y-92652380D02*
X164266666Y-92652380D01*
X163933333Y-93033333D01*
X164076190Y-93033333D01*
X164171428Y-93080952D01*
X164219047Y-93128571D01*
X164266666Y-93223809D01*
X164266666Y-93461904D01*
X164219047Y-93557142D01*
X164171428Y-93604761D01*
X164076190Y-93652380D01*
X163790476Y-93652380D01*
X163695238Y-93604761D01*
X163647619Y-93557142D01*
%TD*%
M02*
