%FSLAX45Y45*%
G04 Gerber Fmt 4.5, Leading zero omitted, Abs format (unit mm)*
G04 Created by KiCad (PCBNEW (5.1.6)-1) date 2022-09-22 09:58:58*
%MOMM*%
%LPD*%
G01*
G04 APERTURE LIST*
%TA.AperFunction,Profile*%
%ADD10C,0.050000*%
%TD*%
%ADD11C,0.200000*%
%ADD12C,0.300000*%
G04 APERTURE END LIST*
D10*
X16820000Y-7570000D02*
X15270000Y-7570000D01*
X16820000Y-7570000D02*
G75*
G02*
X17030000Y-7780000I0J-210000D01*
G01*
X17030000Y-9030000D02*
X17030000Y-7780000D01*
X15060000Y-7780000D02*
G75*
G02*
X15270000Y-7570000I210000J0D01*
G01*
X15060000Y-9030000D02*
X15060000Y-7780000D01*
X15270000Y-9240000D02*
G75*
G02*
X15060000Y-9030000I0J210000D01*
G01*
X15270000Y-9240000D02*
G75*
G02*
X15480000Y-9450000I0J-210000D01*
G01*
X17030000Y-9030000D02*
G75*
G02*
X16820000Y-9240000I-210000J0D01*
G01*
X16610000Y-9450000D02*
G75*
G02*
X16820000Y-9240000I210000J0D01*
G01*
X16610000Y-9760000D02*
X16610000Y-9450000D01*
X15480000Y-9760000D02*
X15480000Y-9450000D01*
X15480000Y-9760000D02*
X16610000Y-9760000D01*
D11*
D12*
X15343928Y-10228214D02*
X15343928Y-9928214D01*
X15415357Y-9928214D01*
X15458214Y-9942500D01*
X15486786Y-9971072D01*
X15501071Y-9999643D01*
X15515357Y-10056786D01*
X15515357Y-10099643D01*
X15501071Y-10156786D01*
X15486786Y-10185357D01*
X15458214Y-10213929D01*
X15415357Y-10228214D01*
X15343928Y-10228214D01*
X15643928Y-10228214D02*
X15643928Y-10028214D01*
X15643928Y-10085357D02*
X15658214Y-10056786D01*
X15672500Y-10042500D01*
X15701071Y-10028214D01*
X15729643Y-10028214D01*
X15829643Y-10228214D02*
X15829643Y-10028214D01*
X15829643Y-9928214D02*
X15815357Y-9942500D01*
X15829643Y-9956786D01*
X15843928Y-9942500D01*
X15829643Y-9928214D01*
X15829643Y-9956786D01*
X16015357Y-10228214D02*
X15986786Y-10213929D01*
X15972500Y-10185357D01*
X15972500Y-9928214D01*
X16172500Y-10228214D02*
X16143928Y-10213929D01*
X16129643Y-10185357D01*
X16129643Y-9928214D01*
X16515357Y-10228214D02*
X16515357Y-9928214D01*
X16615357Y-10142500D01*
X16715357Y-9928214D01*
X16715357Y-10228214D01*
X16986786Y-10228214D02*
X16986786Y-10071072D01*
X16972500Y-10042500D01*
X16943928Y-10028214D01*
X16886786Y-10028214D01*
X16858214Y-10042500D01*
X16986786Y-10213929D02*
X16958214Y-10228214D01*
X16886786Y-10228214D01*
X16858214Y-10213929D01*
X16843928Y-10185357D01*
X16843928Y-10156786D01*
X16858214Y-10128214D01*
X16886786Y-10113929D01*
X16958214Y-10113929D01*
X16986786Y-10099643D01*
X17129643Y-10028214D02*
X17129643Y-10328214D01*
X17129643Y-10042500D02*
X17158214Y-10028214D01*
X17215357Y-10028214D01*
X17243928Y-10042500D01*
X17258214Y-10056786D01*
X17272500Y-10085357D01*
X17272500Y-10171072D01*
X17258214Y-10199643D01*
X17243928Y-10213929D01*
X17215357Y-10228214D01*
X17158214Y-10228214D01*
X17129643Y-10213929D01*
X17401071Y-10199643D02*
X17415357Y-10213929D01*
X17401071Y-10228214D01*
X17386786Y-10213929D01*
X17401071Y-10199643D01*
X17401071Y-10228214D01*
X17401071Y-10042500D02*
X17415357Y-10056786D01*
X17401071Y-10071072D01*
X17386786Y-10056786D01*
X17401071Y-10042500D01*
X17401071Y-10071072D01*
M02*
