%TF.GenerationSoftware,KiCad,Pcbnew,(5.1.6)-1*%
%TF.CreationDate,2022-09-22T09:58:55-04:00*%
%TF.ProjectId,EXT_BATT_3V-6V,4558545f-4241-4545-945f-33562d36562e,rev?*%
%TF.SameCoordinates,Original*%
%TF.FileFunction,Copper,L2,Bot*%
%TF.FilePolarity,Positive*%
%FSLAX46Y46*%
G04 Gerber Fmt 4.6, Leading zero omitted, Abs format (unit mm)*
G04 Created by KiCad (PCBNEW (5.1.6)-1) date 2022-09-22 09:58:55*
%MOMM*%
%LPD*%
G01*
G04 APERTURE LIST*
%TA.AperFunction,SMDPad,CuDef*%
%ADD10R,2.540000X3.170000*%
%TD*%
%TA.AperFunction,SMDPad,CuDef*%
%ADD11R,3.960000X3.960000*%
%TD*%
%TA.AperFunction,SMDPad,CuDef*%
%ADD12R,0.600000X1.250000*%
%TD*%
%TA.AperFunction,ComponentPad*%
%ADD13R,1.700000X1.700000*%
%TD*%
%TA.AperFunction,ComponentPad*%
%ADD14O,1.700000X1.700000*%
%TD*%
%TA.AperFunction,ViaPad*%
%ADD15C,0.800000*%
%TD*%
%TA.AperFunction,Conductor*%
%ADD16C,0.500000*%
%TD*%
%TA.AperFunction,Conductor*%
%ADD17C,0.254000*%
%TD*%
G04 APERTURE END LIST*
D10*
%TO.P,H1,1*%
%TO.N,+BATT*%
X152920001Y-82055001D03*
%TO.P,H1,2*%
X168160001Y-82055001D03*
D11*
%TO.P,H1,MP1*%
%TO.N,Net-(H1-PadMP1)*%
X160540001Y-82055001D03*
%TD*%
D12*
%TO.P,IC1,1*%
%TO.N,+BATT*%
X151450000Y-87150000D03*
%TO.P,IC1,2*%
%TO.N,GND*%
X152400000Y-87150000D03*
%TO.P,IC1,3*%
%TO.N,+BATT*%
X153350000Y-87150000D03*
%TO.P,IC1,4*%
%TO.N,Net-(IC1-Pad4)*%
X153350000Y-89650000D03*
%TO.P,IC1,5*%
%TO.N,VDD*%
X151450000Y-89650000D03*
%TD*%
D13*
%TO.P,J1,1*%
%TO.N,VDD*%
X156580000Y-96300000D03*
D14*
%TO.P,J1,2*%
%TO.N,Net-(J1-Pad2)*%
X159120000Y-96300000D03*
%TO.P,J1,3*%
%TO.N,Net-(J1-Pad3)*%
X161660000Y-96300000D03*
%TO.P,J1,4*%
%TO.N,GND*%
X164200000Y-96300000D03*
%TD*%
D13*
%TO.P,J2,1*%
%TO.N,Net-(H1-PadMP1)*%
X156060000Y-91100000D03*
D14*
%TO.P,J2,2*%
%TO.N,Net-(H2-Pad1)*%
X158600000Y-91100000D03*
%TD*%
%TO.P,J3,2*%
%TO.N,Net-(H1-PadMP1)*%
X164900000Y-91100000D03*
D13*
%TO.P,J3,1*%
%TO.N,GND*%
X162360000Y-91100000D03*
%TD*%
D15*
%TO.N,GND*%
X152400000Y-85950000D03*
X152000000Y-77100000D03*
X169000000Y-77000000D03*
%TD*%
D16*
%TO.N,+BATT*%
X153350000Y-82485000D02*
X152920001Y-82055001D01*
X153350000Y-87150000D02*
X153350000Y-86050000D01*
X153350000Y-86050000D02*
X153350000Y-82485000D01*
X153350000Y-85550000D02*
X153350000Y-86050000D01*
X152900000Y-85100000D02*
X153350000Y-85550000D01*
X151900000Y-85100000D02*
X152900000Y-85100000D01*
X151450000Y-87150000D02*
X151450000Y-85550000D01*
X151450000Y-85550000D02*
X151900000Y-85100000D01*
X152920001Y-79679999D02*
X152920001Y-82055001D01*
X154200000Y-78400000D02*
X152920001Y-79679999D01*
X166800000Y-78400000D02*
X154200000Y-78400000D01*
X168160001Y-82055001D02*
X168160001Y-79760001D01*
X168160001Y-79760001D02*
X166800000Y-78400000D01*
%TO.N,Net-(H1-PadMP1)*%
X156060000Y-91100000D02*
X157960000Y-93000000D01*
X163000000Y-93000000D02*
X164900000Y-91100000D01*
X157960000Y-93000000D02*
X163000000Y-93000000D01*
X164900000Y-86415000D02*
X160540001Y-82055001D01*
X164900000Y-91100000D02*
X164900000Y-86415000D01*
%TO.N,GND*%
X152400000Y-87150000D02*
X152400000Y-85950000D01*
%TO.N,VDD*%
X156580000Y-94380000D02*
X156580000Y-96300000D01*
X153800000Y-91600000D02*
X156580000Y-94380000D01*
X152200000Y-91600000D02*
X153800000Y-91600000D01*
X151450000Y-89650000D02*
X151450000Y-90850000D01*
X151450000Y-90850000D02*
X152200000Y-91600000D01*
%TD*%
D17*
%TO.N,GND*%
G36*
X167483002Y-80040425D02*
G01*
X167483002Y-80040935D01*
X166890001Y-80040935D01*
X166806294Y-80049179D01*
X166725805Y-80073596D01*
X166651625Y-80113246D01*
X166586606Y-80166606D01*
X166533246Y-80231625D01*
X166493596Y-80305805D01*
X166469179Y-80386294D01*
X166460935Y-80470001D01*
X166460935Y-83640001D01*
X166469179Y-83723708D01*
X166493596Y-83804197D01*
X166533246Y-83878377D01*
X166586606Y-83943396D01*
X166651625Y-83996756D01*
X166725805Y-84036406D01*
X166806294Y-84060823D01*
X166890001Y-84069067D01*
X169430001Y-84069067D01*
X169513708Y-84060823D01*
X169594197Y-84036406D01*
X169668377Y-83996756D01*
X169733396Y-83943396D01*
X169786756Y-83878377D01*
X169826406Y-83804197D01*
X169848001Y-83733012D01*
X169848000Y-90277892D01*
X169814488Y-90619676D01*
X169721649Y-90927176D01*
X169570850Y-91210789D01*
X169367836Y-91459709D01*
X169120340Y-91664455D01*
X168837785Y-91817233D01*
X168530941Y-91912217D01*
X168190185Y-91948032D01*
X168183767Y-91948054D01*
X168164124Y-91950049D01*
X168144373Y-91949911D01*
X168138092Y-91950527D01*
X167730489Y-91993368D01*
X167690358Y-92001606D01*
X167650118Y-92009282D01*
X167644076Y-92011106D01*
X167252557Y-92132301D01*
X167214775Y-92148183D01*
X167176807Y-92163523D01*
X167171239Y-92166483D01*
X167171235Y-92166485D01*
X167171234Y-92166486D01*
X166810712Y-92361420D01*
X166776733Y-92384339D01*
X166742471Y-92406760D01*
X166737580Y-92410748D01*
X166421786Y-92671996D01*
X166392920Y-92701064D01*
X166363648Y-92729729D01*
X166359631Y-92734585D01*
X166359626Y-92734590D01*
X166359622Y-92734595D01*
X166100590Y-93052201D01*
X166077903Y-93086347D01*
X166054775Y-93120125D01*
X166051773Y-93125676D01*
X165859361Y-93487551D01*
X165843742Y-93525444D01*
X165827611Y-93563081D01*
X165825744Y-93569110D01*
X165707286Y-93961466D01*
X165699336Y-94001617D01*
X165690811Y-94041724D01*
X165690151Y-94048001D01*
X165650157Y-94455893D01*
X165650157Y-94455905D01*
X165648001Y-94477795D01*
X165648000Y-97148000D01*
X165146811Y-97148000D01*
X165217072Y-97072212D01*
X165348180Y-96858953D01*
X165435164Y-96624214D01*
X165363925Y-96427000D01*
X164327000Y-96427000D01*
X164327000Y-96447000D01*
X164073000Y-96447000D01*
X164073000Y-96427000D01*
X164053000Y-96427000D01*
X164053000Y-96173000D01*
X164073000Y-96173000D01*
X164073000Y-95136662D01*
X164327000Y-95136662D01*
X164327000Y-96173000D01*
X165363925Y-96173000D01*
X165435164Y-95975786D01*
X165348180Y-95741047D01*
X165217072Y-95527788D01*
X165046878Y-95344205D01*
X164844139Y-95197353D01*
X164616646Y-95092875D01*
X164524213Y-95064842D01*
X164327000Y-95136662D01*
X164073000Y-95136662D01*
X163875787Y-95064842D01*
X163783354Y-95092875D01*
X163555861Y-95197353D01*
X163353122Y-95344205D01*
X163182928Y-95527788D01*
X163051820Y-95741047D01*
X162964836Y-95975786D01*
X163036074Y-96172998D01*
X162936756Y-96172998D01*
X162887926Y-95927513D01*
X162791663Y-95695114D01*
X162651911Y-95485960D01*
X162474040Y-95308089D01*
X162264886Y-95168337D01*
X162032487Y-95072074D01*
X161785774Y-95023000D01*
X161534226Y-95023000D01*
X161287513Y-95072074D01*
X161055114Y-95168337D01*
X160845960Y-95308089D01*
X160668089Y-95485960D01*
X160528337Y-95695114D01*
X160432074Y-95927513D01*
X160390000Y-96139034D01*
X160347926Y-95927513D01*
X160251663Y-95695114D01*
X160111911Y-95485960D01*
X159934040Y-95308089D01*
X159724886Y-95168337D01*
X159492487Y-95072074D01*
X159245774Y-95023000D01*
X158994226Y-95023000D01*
X158747513Y-95072074D01*
X158515114Y-95168337D01*
X158305960Y-95308089D01*
X158128089Y-95485960D01*
X157988337Y-95695114D01*
X157892074Y-95927513D01*
X157859066Y-96093456D01*
X157859066Y-95450000D01*
X157850822Y-95366293D01*
X157826405Y-95285804D01*
X157786755Y-95211624D01*
X157733395Y-95146605D01*
X157668376Y-95093245D01*
X157594196Y-95053595D01*
X157513707Y-95029178D01*
X157430000Y-95020934D01*
X157257000Y-95020934D01*
X157257000Y-94413252D01*
X157260275Y-94380000D01*
X157247204Y-94247285D01*
X157208492Y-94119670D01*
X157145628Y-94002059D01*
X157082224Y-93924801D01*
X157082218Y-93924795D01*
X157061026Y-93898973D01*
X157035206Y-93877783D01*
X155536488Y-92379066D01*
X156381644Y-92379066D01*
X157457778Y-93455201D01*
X157478973Y-93481027D01*
X157504799Y-93502222D01*
X157504801Y-93502224D01*
X157582059Y-93565628D01*
X157699670Y-93628492D01*
X157827285Y-93667204D01*
X157960000Y-93680275D01*
X157993252Y-93677000D01*
X162966755Y-93677000D01*
X163000000Y-93680274D01*
X163033245Y-93677000D01*
X163033252Y-93677000D01*
X163132715Y-93667204D01*
X163260330Y-93628492D01*
X163377941Y-93565628D01*
X163481027Y-93481027D01*
X163502226Y-93455196D01*
X164612577Y-92344846D01*
X164774226Y-92377000D01*
X165025774Y-92377000D01*
X165272487Y-92327926D01*
X165504886Y-92231663D01*
X165714040Y-92091911D01*
X165891911Y-91914040D01*
X166031663Y-91704886D01*
X166127926Y-91472487D01*
X166177000Y-91225774D01*
X166177000Y-90974226D01*
X166127926Y-90727513D01*
X166031663Y-90495114D01*
X165891911Y-90285960D01*
X165714040Y-90108089D01*
X165577000Y-90016522D01*
X165577000Y-86448252D01*
X165580275Y-86415000D01*
X165567204Y-86282285D01*
X165528492Y-86154670D01*
X165465628Y-86037059D01*
X165402224Y-85959801D01*
X165402222Y-85959799D01*
X165381027Y-85933973D01*
X165355201Y-85912778D01*
X162949067Y-83506645D01*
X162949067Y-80075001D01*
X162940823Y-79991294D01*
X162916406Y-79910805D01*
X162876756Y-79836625D01*
X162823396Y-79771606D01*
X162758377Y-79718246D01*
X162684197Y-79678596D01*
X162603708Y-79654179D01*
X162520001Y-79645935D01*
X158560001Y-79645935D01*
X158476294Y-79654179D01*
X158395805Y-79678596D01*
X158321625Y-79718246D01*
X158256606Y-79771606D01*
X158203246Y-79836625D01*
X158163596Y-79910805D01*
X158139179Y-79991294D01*
X158130935Y-80075001D01*
X158130935Y-84035001D01*
X158139179Y-84118708D01*
X158163596Y-84199197D01*
X158203246Y-84273377D01*
X158256606Y-84338396D01*
X158321625Y-84391756D01*
X158395805Y-84431406D01*
X158476294Y-84455823D01*
X158560001Y-84464067D01*
X161991645Y-84464067D01*
X164223001Y-86695424D01*
X164223000Y-90016522D01*
X164085960Y-90108089D01*
X163908089Y-90285960D01*
X163768337Y-90495114D01*
X163672074Y-90727513D01*
X163623244Y-90972998D01*
X163530252Y-90972998D01*
X163637000Y-90866250D01*
X163639066Y-90250000D01*
X163630822Y-90166293D01*
X163606405Y-90085804D01*
X163566755Y-90011624D01*
X163513395Y-89946605D01*
X163448376Y-89893245D01*
X163374196Y-89853595D01*
X163293707Y-89829178D01*
X163210000Y-89820934D01*
X162593750Y-89823000D01*
X162487000Y-89929750D01*
X162487000Y-90973000D01*
X162507000Y-90973000D01*
X162507000Y-91227000D01*
X162487000Y-91227000D01*
X162487000Y-91247000D01*
X162233000Y-91247000D01*
X162233000Y-91227000D01*
X161189750Y-91227000D01*
X161083000Y-91333750D01*
X161080934Y-91950000D01*
X161089178Y-92033707D01*
X161113595Y-92114196D01*
X161153245Y-92188376D01*
X161206605Y-92253395D01*
X161271624Y-92306755D01*
X161302016Y-92323000D01*
X158984379Y-92323000D01*
X159204886Y-92231663D01*
X159414040Y-92091911D01*
X159591911Y-91914040D01*
X159731663Y-91704886D01*
X159827926Y-91472487D01*
X159877000Y-91225774D01*
X159877000Y-90974226D01*
X159827926Y-90727513D01*
X159731663Y-90495114D01*
X159591911Y-90285960D01*
X159555951Y-90250000D01*
X161080934Y-90250000D01*
X161083000Y-90866250D01*
X161189750Y-90973000D01*
X162233000Y-90973000D01*
X162233000Y-89929750D01*
X162126250Y-89823000D01*
X161510000Y-89820934D01*
X161426293Y-89829178D01*
X161345804Y-89853595D01*
X161271624Y-89893245D01*
X161206605Y-89946605D01*
X161153245Y-90011624D01*
X161113595Y-90085804D01*
X161089178Y-90166293D01*
X161080934Y-90250000D01*
X159555951Y-90250000D01*
X159414040Y-90108089D01*
X159204886Y-89968337D01*
X158972487Y-89872074D01*
X158725774Y-89823000D01*
X158474226Y-89823000D01*
X158227513Y-89872074D01*
X157995114Y-89968337D01*
X157785960Y-90108089D01*
X157608089Y-90285960D01*
X157468337Y-90495114D01*
X157372074Y-90727513D01*
X157339066Y-90893456D01*
X157339066Y-90250000D01*
X157330822Y-90166293D01*
X157306405Y-90085804D01*
X157266755Y-90011624D01*
X157213395Y-89946605D01*
X157148376Y-89893245D01*
X157074196Y-89853595D01*
X156993707Y-89829178D01*
X156910000Y-89820934D01*
X155210000Y-89820934D01*
X155126293Y-89829178D01*
X155045804Y-89853595D01*
X154971624Y-89893245D01*
X154906605Y-89946605D01*
X154853245Y-90011624D01*
X154813595Y-90085804D01*
X154789178Y-90166293D01*
X154780934Y-90250000D01*
X154780934Y-91623512D01*
X154302226Y-91144804D01*
X154281027Y-91118973D01*
X154177941Y-91034372D01*
X154060330Y-90971508D01*
X153932715Y-90932796D01*
X153833252Y-90923000D01*
X153833245Y-90923000D01*
X153800000Y-90919726D01*
X153766755Y-90923000D01*
X152480422Y-90923000D01*
X152127000Y-90569578D01*
X152127000Y-90475500D01*
X152146405Y-90439196D01*
X152170822Y-90358707D01*
X152179066Y-90275000D01*
X152179066Y-89025000D01*
X152620934Y-89025000D01*
X152620934Y-90275000D01*
X152629178Y-90358707D01*
X152653595Y-90439196D01*
X152693245Y-90513376D01*
X152746605Y-90578395D01*
X152811624Y-90631755D01*
X152885804Y-90671405D01*
X152966293Y-90695822D01*
X153050000Y-90704066D01*
X153650000Y-90704066D01*
X153733707Y-90695822D01*
X153814196Y-90671405D01*
X153888376Y-90631755D01*
X153953395Y-90578395D01*
X154006755Y-90513376D01*
X154046405Y-90439196D01*
X154070822Y-90358707D01*
X154079066Y-90275000D01*
X154079066Y-89025000D01*
X154070822Y-88941293D01*
X154046405Y-88860804D01*
X154006755Y-88786624D01*
X153953395Y-88721605D01*
X153888376Y-88668245D01*
X153814196Y-88628595D01*
X153733707Y-88604178D01*
X153650000Y-88595934D01*
X153050000Y-88595934D01*
X152966293Y-88604178D01*
X152885804Y-88628595D01*
X152811624Y-88668245D01*
X152746605Y-88721605D01*
X152693245Y-88786624D01*
X152653595Y-88860804D01*
X152629178Y-88941293D01*
X152620934Y-89025000D01*
X152179066Y-89025000D01*
X152170822Y-88941293D01*
X152146405Y-88860804D01*
X152106755Y-88786624D01*
X152053395Y-88721605D01*
X151988376Y-88668245D01*
X151914196Y-88628595D01*
X151833707Y-88604178D01*
X151750000Y-88595934D01*
X151150000Y-88595934D01*
X151066293Y-88604178D01*
X151052000Y-88608514D01*
X151052000Y-88191486D01*
X151066293Y-88195822D01*
X151150000Y-88204066D01*
X151750000Y-88204066D01*
X151833707Y-88195822D01*
X151914196Y-88171405D01*
X151925000Y-88165630D01*
X151935804Y-88171405D01*
X152016293Y-88195822D01*
X152100000Y-88204066D01*
X152166250Y-88202000D01*
X152273000Y-88095250D01*
X152273000Y-87277000D01*
X152253000Y-87277000D01*
X152253000Y-87023000D01*
X152273000Y-87023000D01*
X152273000Y-86204750D01*
X152166250Y-86098000D01*
X152127000Y-86096776D01*
X152127000Y-85830422D01*
X152180421Y-85777000D01*
X152619578Y-85777000D01*
X152673000Y-85830421D01*
X152673000Y-86083252D01*
X152673001Y-86083262D01*
X152673001Y-86096776D01*
X152633750Y-86098000D01*
X152527000Y-86204750D01*
X152527000Y-87023000D01*
X152547000Y-87023000D01*
X152547000Y-87277000D01*
X152527000Y-87277000D01*
X152527000Y-88095250D01*
X152633750Y-88202000D01*
X152700000Y-88204066D01*
X152783707Y-88195822D01*
X152864196Y-88171405D01*
X152875000Y-88165630D01*
X152885804Y-88171405D01*
X152966293Y-88195822D01*
X153050000Y-88204066D01*
X153650000Y-88204066D01*
X153733707Y-88195822D01*
X153814196Y-88171405D01*
X153888376Y-88131755D01*
X153953395Y-88078395D01*
X154006755Y-88013376D01*
X154046405Y-87939196D01*
X154070822Y-87858707D01*
X154079066Y-87775000D01*
X154079066Y-86525000D01*
X154070822Y-86441293D01*
X154046405Y-86360804D01*
X154027000Y-86324500D01*
X154027000Y-85583241D01*
X154030274Y-85549999D01*
X154027000Y-85516757D01*
X154027000Y-84069067D01*
X154190001Y-84069067D01*
X154273708Y-84060823D01*
X154354197Y-84036406D01*
X154428377Y-83996756D01*
X154493396Y-83943396D01*
X154546756Y-83878377D01*
X154586406Y-83804197D01*
X154610823Y-83723708D01*
X154619067Y-83640001D01*
X154619067Y-80470001D01*
X154610823Y-80386294D01*
X154586406Y-80305805D01*
X154546756Y-80231625D01*
X154493396Y-80166606D01*
X154428377Y-80113246D01*
X154354197Y-80073596D01*
X154273708Y-80049179D01*
X154190001Y-80040935D01*
X153597001Y-80040935D01*
X153597001Y-79960421D01*
X154480423Y-79077000D01*
X166519578Y-79077000D01*
X167483002Y-80040425D01*
G37*
X167483002Y-80040425D02*
X167483002Y-80040935D01*
X166890001Y-80040935D01*
X166806294Y-80049179D01*
X166725805Y-80073596D01*
X166651625Y-80113246D01*
X166586606Y-80166606D01*
X166533246Y-80231625D01*
X166493596Y-80305805D01*
X166469179Y-80386294D01*
X166460935Y-80470001D01*
X166460935Y-83640001D01*
X166469179Y-83723708D01*
X166493596Y-83804197D01*
X166533246Y-83878377D01*
X166586606Y-83943396D01*
X166651625Y-83996756D01*
X166725805Y-84036406D01*
X166806294Y-84060823D01*
X166890001Y-84069067D01*
X169430001Y-84069067D01*
X169513708Y-84060823D01*
X169594197Y-84036406D01*
X169668377Y-83996756D01*
X169733396Y-83943396D01*
X169786756Y-83878377D01*
X169826406Y-83804197D01*
X169848001Y-83733012D01*
X169848000Y-90277892D01*
X169814488Y-90619676D01*
X169721649Y-90927176D01*
X169570850Y-91210789D01*
X169367836Y-91459709D01*
X169120340Y-91664455D01*
X168837785Y-91817233D01*
X168530941Y-91912217D01*
X168190185Y-91948032D01*
X168183767Y-91948054D01*
X168164124Y-91950049D01*
X168144373Y-91949911D01*
X168138092Y-91950527D01*
X167730489Y-91993368D01*
X167690358Y-92001606D01*
X167650118Y-92009282D01*
X167644076Y-92011106D01*
X167252557Y-92132301D01*
X167214775Y-92148183D01*
X167176807Y-92163523D01*
X167171239Y-92166483D01*
X167171235Y-92166485D01*
X167171234Y-92166486D01*
X166810712Y-92361420D01*
X166776733Y-92384339D01*
X166742471Y-92406760D01*
X166737580Y-92410748D01*
X166421786Y-92671996D01*
X166392920Y-92701064D01*
X166363648Y-92729729D01*
X166359631Y-92734585D01*
X166359626Y-92734590D01*
X166359622Y-92734595D01*
X166100590Y-93052201D01*
X166077903Y-93086347D01*
X166054775Y-93120125D01*
X166051773Y-93125676D01*
X165859361Y-93487551D01*
X165843742Y-93525444D01*
X165827611Y-93563081D01*
X165825744Y-93569110D01*
X165707286Y-93961466D01*
X165699336Y-94001617D01*
X165690811Y-94041724D01*
X165690151Y-94048001D01*
X165650157Y-94455893D01*
X165650157Y-94455905D01*
X165648001Y-94477795D01*
X165648000Y-97148000D01*
X165146811Y-97148000D01*
X165217072Y-97072212D01*
X165348180Y-96858953D01*
X165435164Y-96624214D01*
X165363925Y-96427000D01*
X164327000Y-96427000D01*
X164327000Y-96447000D01*
X164073000Y-96447000D01*
X164073000Y-96427000D01*
X164053000Y-96427000D01*
X164053000Y-96173000D01*
X164073000Y-96173000D01*
X164073000Y-95136662D01*
X164327000Y-95136662D01*
X164327000Y-96173000D01*
X165363925Y-96173000D01*
X165435164Y-95975786D01*
X165348180Y-95741047D01*
X165217072Y-95527788D01*
X165046878Y-95344205D01*
X164844139Y-95197353D01*
X164616646Y-95092875D01*
X164524213Y-95064842D01*
X164327000Y-95136662D01*
X164073000Y-95136662D01*
X163875787Y-95064842D01*
X163783354Y-95092875D01*
X163555861Y-95197353D01*
X163353122Y-95344205D01*
X163182928Y-95527788D01*
X163051820Y-95741047D01*
X162964836Y-95975786D01*
X163036074Y-96172998D01*
X162936756Y-96172998D01*
X162887926Y-95927513D01*
X162791663Y-95695114D01*
X162651911Y-95485960D01*
X162474040Y-95308089D01*
X162264886Y-95168337D01*
X162032487Y-95072074D01*
X161785774Y-95023000D01*
X161534226Y-95023000D01*
X161287513Y-95072074D01*
X161055114Y-95168337D01*
X160845960Y-95308089D01*
X160668089Y-95485960D01*
X160528337Y-95695114D01*
X160432074Y-95927513D01*
X160390000Y-96139034D01*
X160347926Y-95927513D01*
X160251663Y-95695114D01*
X160111911Y-95485960D01*
X159934040Y-95308089D01*
X159724886Y-95168337D01*
X159492487Y-95072074D01*
X159245774Y-95023000D01*
X158994226Y-95023000D01*
X158747513Y-95072074D01*
X158515114Y-95168337D01*
X158305960Y-95308089D01*
X158128089Y-95485960D01*
X157988337Y-95695114D01*
X157892074Y-95927513D01*
X157859066Y-96093456D01*
X157859066Y-95450000D01*
X157850822Y-95366293D01*
X157826405Y-95285804D01*
X157786755Y-95211624D01*
X157733395Y-95146605D01*
X157668376Y-95093245D01*
X157594196Y-95053595D01*
X157513707Y-95029178D01*
X157430000Y-95020934D01*
X157257000Y-95020934D01*
X157257000Y-94413252D01*
X157260275Y-94380000D01*
X157247204Y-94247285D01*
X157208492Y-94119670D01*
X157145628Y-94002059D01*
X157082224Y-93924801D01*
X157082218Y-93924795D01*
X157061026Y-93898973D01*
X157035206Y-93877783D01*
X155536488Y-92379066D01*
X156381644Y-92379066D01*
X157457778Y-93455201D01*
X157478973Y-93481027D01*
X157504799Y-93502222D01*
X157504801Y-93502224D01*
X157582059Y-93565628D01*
X157699670Y-93628492D01*
X157827285Y-93667204D01*
X157960000Y-93680275D01*
X157993252Y-93677000D01*
X162966755Y-93677000D01*
X163000000Y-93680274D01*
X163033245Y-93677000D01*
X163033252Y-93677000D01*
X163132715Y-93667204D01*
X163260330Y-93628492D01*
X163377941Y-93565628D01*
X163481027Y-93481027D01*
X163502226Y-93455196D01*
X164612577Y-92344846D01*
X164774226Y-92377000D01*
X165025774Y-92377000D01*
X165272487Y-92327926D01*
X165504886Y-92231663D01*
X165714040Y-92091911D01*
X165891911Y-91914040D01*
X166031663Y-91704886D01*
X166127926Y-91472487D01*
X166177000Y-91225774D01*
X166177000Y-90974226D01*
X166127926Y-90727513D01*
X166031663Y-90495114D01*
X165891911Y-90285960D01*
X165714040Y-90108089D01*
X165577000Y-90016522D01*
X165577000Y-86448252D01*
X165580275Y-86415000D01*
X165567204Y-86282285D01*
X165528492Y-86154670D01*
X165465628Y-86037059D01*
X165402224Y-85959801D01*
X165402222Y-85959799D01*
X165381027Y-85933973D01*
X165355201Y-85912778D01*
X162949067Y-83506645D01*
X162949067Y-80075001D01*
X162940823Y-79991294D01*
X162916406Y-79910805D01*
X162876756Y-79836625D01*
X162823396Y-79771606D01*
X162758377Y-79718246D01*
X162684197Y-79678596D01*
X162603708Y-79654179D01*
X162520001Y-79645935D01*
X158560001Y-79645935D01*
X158476294Y-79654179D01*
X158395805Y-79678596D01*
X158321625Y-79718246D01*
X158256606Y-79771606D01*
X158203246Y-79836625D01*
X158163596Y-79910805D01*
X158139179Y-79991294D01*
X158130935Y-80075001D01*
X158130935Y-84035001D01*
X158139179Y-84118708D01*
X158163596Y-84199197D01*
X158203246Y-84273377D01*
X158256606Y-84338396D01*
X158321625Y-84391756D01*
X158395805Y-84431406D01*
X158476294Y-84455823D01*
X158560001Y-84464067D01*
X161991645Y-84464067D01*
X164223001Y-86695424D01*
X164223000Y-90016522D01*
X164085960Y-90108089D01*
X163908089Y-90285960D01*
X163768337Y-90495114D01*
X163672074Y-90727513D01*
X163623244Y-90972998D01*
X163530252Y-90972998D01*
X163637000Y-90866250D01*
X163639066Y-90250000D01*
X163630822Y-90166293D01*
X163606405Y-90085804D01*
X163566755Y-90011624D01*
X163513395Y-89946605D01*
X163448376Y-89893245D01*
X163374196Y-89853595D01*
X163293707Y-89829178D01*
X163210000Y-89820934D01*
X162593750Y-89823000D01*
X162487000Y-89929750D01*
X162487000Y-90973000D01*
X162507000Y-90973000D01*
X162507000Y-91227000D01*
X162487000Y-91227000D01*
X162487000Y-91247000D01*
X162233000Y-91247000D01*
X162233000Y-91227000D01*
X161189750Y-91227000D01*
X161083000Y-91333750D01*
X161080934Y-91950000D01*
X161089178Y-92033707D01*
X161113595Y-92114196D01*
X161153245Y-92188376D01*
X161206605Y-92253395D01*
X161271624Y-92306755D01*
X161302016Y-92323000D01*
X158984379Y-92323000D01*
X159204886Y-92231663D01*
X159414040Y-92091911D01*
X159591911Y-91914040D01*
X159731663Y-91704886D01*
X159827926Y-91472487D01*
X159877000Y-91225774D01*
X159877000Y-90974226D01*
X159827926Y-90727513D01*
X159731663Y-90495114D01*
X159591911Y-90285960D01*
X159555951Y-90250000D01*
X161080934Y-90250000D01*
X161083000Y-90866250D01*
X161189750Y-90973000D01*
X162233000Y-90973000D01*
X162233000Y-89929750D01*
X162126250Y-89823000D01*
X161510000Y-89820934D01*
X161426293Y-89829178D01*
X161345804Y-89853595D01*
X161271624Y-89893245D01*
X161206605Y-89946605D01*
X161153245Y-90011624D01*
X161113595Y-90085804D01*
X161089178Y-90166293D01*
X161080934Y-90250000D01*
X159555951Y-90250000D01*
X159414040Y-90108089D01*
X159204886Y-89968337D01*
X158972487Y-89872074D01*
X158725774Y-89823000D01*
X158474226Y-89823000D01*
X158227513Y-89872074D01*
X157995114Y-89968337D01*
X157785960Y-90108089D01*
X157608089Y-90285960D01*
X157468337Y-90495114D01*
X157372074Y-90727513D01*
X157339066Y-90893456D01*
X157339066Y-90250000D01*
X157330822Y-90166293D01*
X157306405Y-90085804D01*
X157266755Y-90011624D01*
X157213395Y-89946605D01*
X157148376Y-89893245D01*
X157074196Y-89853595D01*
X156993707Y-89829178D01*
X156910000Y-89820934D01*
X155210000Y-89820934D01*
X155126293Y-89829178D01*
X155045804Y-89853595D01*
X154971624Y-89893245D01*
X154906605Y-89946605D01*
X154853245Y-90011624D01*
X154813595Y-90085804D01*
X154789178Y-90166293D01*
X154780934Y-90250000D01*
X154780934Y-91623512D01*
X154302226Y-91144804D01*
X154281027Y-91118973D01*
X154177941Y-91034372D01*
X154060330Y-90971508D01*
X153932715Y-90932796D01*
X153833252Y-90923000D01*
X153833245Y-90923000D01*
X153800000Y-90919726D01*
X153766755Y-90923000D01*
X152480422Y-90923000D01*
X152127000Y-90569578D01*
X152127000Y-90475500D01*
X152146405Y-90439196D01*
X152170822Y-90358707D01*
X152179066Y-90275000D01*
X152179066Y-89025000D01*
X152620934Y-89025000D01*
X152620934Y-90275000D01*
X152629178Y-90358707D01*
X152653595Y-90439196D01*
X152693245Y-90513376D01*
X152746605Y-90578395D01*
X152811624Y-90631755D01*
X152885804Y-90671405D01*
X152966293Y-90695822D01*
X153050000Y-90704066D01*
X153650000Y-90704066D01*
X153733707Y-90695822D01*
X153814196Y-90671405D01*
X153888376Y-90631755D01*
X153953395Y-90578395D01*
X154006755Y-90513376D01*
X154046405Y-90439196D01*
X154070822Y-90358707D01*
X154079066Y-90275000D01*
X154079066Y-89025000D01*
X154070822Y-88941293D01*
X154046405Y-88860804D01*
X154006755Y-88786624D01*
X153953395Y-88721605D01*
X153888376Y-88668245D01*
X153814196Y-88628595D01*
X153733707Y-88604178D01*
X153650000Y-88595934D01*
X153050000Y-88595934D01*
X152966293Y-88604178D01*
X152885804Y-88628595D01*
X152811624Y-88668245D01*
X152746605Y-88721605D01*
X152693245Y-88786624D01*
X152653595Y-88860804D01*
X152629178Y-88941293D01*
X152620934Y-89025000D01*
X152179066Y-89025000D01*
X152170822Y-88941293D01*
X152146405Y-88860804D01*
X152106755Y-88786624D01*
X152053395Y-88721605D01*
X151988376Y-88668245D01*
X151914196Y-88628595D01*
X151833707Y-88604178D01*
X151750000Y-88595934D01*
X151150000Y-88595934D01*
X151066293Y-88604178D01*
X151052000Y-88608514D01*
X151052000Y-88191486D01*
X151066293Y-88195822D01*
X151150000Y-88204066D01*
X151750000Y-88204066D01*
X151833707Y-88195822D01*
X151914196Y-88171405D01*
X151925000Y-88165630D01*
X151935804Y-88171405D01*
X152016293Y-88195822D01*
X152100000Y-88204066D01*
X152166250Y-88202000D01*
X152273000Y-88095250D01*
X152273000Y-87277000D01*
X152253000Y-87277000D01*
X152253000Y-87023000D01*
X152273000Y-87023000D01*
X152273000Y-86204750D01*
X152166250Y-86098000D01*
X152127000Y-86096776D01*
X152127000Y-85830422D01*
X152180421Y-85777000D01*
X152619578Y-85777000D01*
X152673000Y-85830421D01*
X152673000Y-86083252D01*
X152673001Y-86083262D01*
X152673001Y-86096776D01*
X152633750Y-86098000D01*
X152527000Y-86204750D01*
X152527000Y-87023000D01*
X152547000Y-87023000D01*
X152547000Y-87277000D01*
X152527000Y-87277000D01*
X152527000Y-88095250D01*
X152633750Y-88202000D01*
X152700000Y-88204066D01*
X152783707Y-88195822D01*
X152864196Y-88171405D01*
X152875000Y-88165630D01*
X152885804Y-88171405D01*
X152966293Y-88195822D01*
X153050000Y-88204066D01*
X153650000Y-88204066D01*
X153733707Y-88195822D01*
X153814196Y-88171405D01*
X153888376Y-88131755D01*
X153953395Y-88078395D01*
X154006755Y-88013376D01*
X154046405Y-87939196D01*
X154070822Y-87858707D01*
X154079066Y-87775000D01*
X154079066Y-86525000D01*
X154070822Y-86441293D01*
X154046405Y-86360804D01*
X154027000Y-86324500D01*
X154027000Y-85583241D01*
X154030274Y-85549999D01*
X154027000Y-85516757D01*
X154027000Y-84069067D01*
X154190001Y-84069067D01*
X154273708Y-84060823D01*
X154354197Y-84036406D01*
X154428377Y-83996756D01*
X154493396Y-83943396D01*
X154546756Y-83878377D01*
X154586406Y-83804197D01*
X154610823Y-83723708D01*
X154619067Y-83640001D01*
X154619067Y-80470001D01*
X154610823Y-80386294D01*
X154586406Y-80305805D01*
X154546756Y-80231625D01*
X154493396Y-80166606D01*
X154428377Y-80113246D01*
X154354197Y-80073596D01*
X154273708Y-80049179D01*
X154190001Y-80040935D01*
X153597001Y-80040935D01*
X153597001Y-79960421D01*
X154480423Y-79077000D01*
X166519578Y-79077000D01*
X167483002Y-80040425D01*
G36*
X168519681Y-76185513D02*
G01*
X168827179Y-76278352D01*
X169110789Y-76429150D01*
X169359711Y-76632166D01*
X169564457Y-76879662D01*
X169717233Y-77162215D01*
X169812217Y-77469059D01*
X169848001Y-77809523D01*
X169848001Y-80376991D01*
X169826406Y-80305805D01*
X169786756Y-80231625D01*
X169733396Y-80166606D01*
X169668377Y-80113246D01*
X169594197Y-80073596D01*
X169513708Y-80049179D01*
X169430001Y-80040935D01*
X168837001Y-80040935D01*
X168837001Y-79793253D01*
X168840276Y-79760001D01*
X168827205Y-79627286D01*
X168788493Y-79499671D01*
X168725629Y-79382060D01*
X168662225Y-79304802D01*
X168662223Y-79304800D01*
X168641028Y-79278974D01*
X168615202Y-79257779D01*
X167302226Y-77944804D01*
X167281027Y-77918973D01*
X167177941Y-77834372D01*
X167060330Y-77771508D01*
X166932715Y-77732796D01*
X166833252Y-77723000D01*
X166833245Y-77723000D01*
X166800000Y-77719726D01*
X166766755Y-77723000D01*
X154233245Y-77723000D01*
X154200000Y-77719726D01*
X154166755Y-77723000D01*
X154166748Y-77723000D01*
X154067285Y-77732796D01*
X153939670Y-77771508D01*
X153822059Y-77834372D01*
X153755086Y-77889336D01*
X153718973Y-77918973D01*
X153697778Y-77944799D01*
X152464801Y-79177777D01*
X152438974Y-79198973D01*
X152354373Y-79302059D01*
X152291509Y-79419670D01*
X152252797Y-79547285D01*
X152243001Y-79646748D01*
X152243001Y-79646754D01*
X152239727Y-79679999D01*
X152243001Y-79713244D01*
X152243001Y-80040935D01*
X151650001Y-80040935D01*
X151566294Y-80049179D01*
X151485805Y-80073596D01*
X151411625Y-80113246D01*
X151346606Y-80166606D01*
X151293246Y-80231625D01*
X151253596Y-80305805D01*
X151229179Y-80386294D01*
X151220935Y-80470001D01*
X151220935Y-83640001D01*
X151229179Y-83723708D01*
X151253596Y-83804197D01*
X151293246Y-83878377D01*
X151346606Y-83943396D01*
X151411625Y-83996756D01*
X151485805Y-84036406D01*
X151566294Y-84060823D01*
X151650001Y-84069067D01*
X152673001Y-84069067D01*
X152673000Y-84423000D01*
X151933241Y-84423000D01*
X151899999Y-84419726D01*
X151866757Y-84423000D01*
X151866748Y-84423000D01*
X151767285Y-84432796D01*
X151639670Y-84471508D01*
X151522059Y-84534372D01*
X151418973Y-84618973D01*
X151397769Y-84644809D01*
X151052000Y-84990578D01*
X151052000Y-77822108D01*
X151085513Y-77480319D01*
X151178352Y-77172821D01*
X151329150Y-76889211D01*
X151532166Y-76640289D01*
X151779662Y-76435543D01*
X152062215Y-76282767D01*
X152369059Y-76187783D01*
X152709514Y-76152000D01*
X168177892Y-76152000D01*
X168519681Y-76185513D01*
G37*
X168519681Y-76185513D02*
X168827179Y-76278352D01*
X169110789Y-76429150D01*
X169359711Y-76632166D01*
X169564457Y-76879662D01*
X169717233Y-77162215D01*
X169812217Y-77469059D01*
X169848001Y-77809523D01*
X169848001Y-80376991D01*
X169826406Y-80305805D01*
X169786756Y-80231625D01*
X169733396Y-80166606D01*
X169668377Y-80113246D01*
X169594197Y-80073596D01*
X169513708Y-80049179D01*
X169430001Y-80040935D01*
X168837001Y-80040935D01*
X168837001Y-79793253D01*
X168840276Y-79760001D01*
X168827205Y-79627286D01*
X168788493Y-79499671D01*
X168725629Y-79382060D01*
X168662225Y-79304802D01*
X168662223Y-79304800D01*
X168641028Y-79278974D01*
X168615202Y-79257779D01*
X167302226Y-77944804D01*
X167281027Y-77918973D01*
X167177941Y-77834372D01*
X167060330Y-77771508D01*
X166932715Y-77732796D01*
X166833252Y-77723000D01*
X166833245Y-77723000D01*
X166800000Y-77719726D01*
X166766755Y-77723000D01*
X154233245Y-77723000D01*
X154200000Y-77719726D01*
X154166755Y-77723000D01*
X154166748Y-77723000D01*
X154067285Y-77732796D01*
X153939670Y-77771508D01*
X153822059Y-77834372D01*
X153755086Y-77889336D01*
X153718973Y-77918973D01*
X153697778Y-77944799D01*
X152464801Y-79177777D01*
X152438974Y-79198973D01*
X152354373Y-79302059D01*
X152291509Y-79419670D01*
X152252797Y-79547285D01*
X152243001Y-79646748D01*
X152243001Y-79646754D01*
X152239727Y-79679999D01*
X152243001Y-79713244D01*
X152243001Y-80040935D01*
X151650001Y-80040935D01*
X151566294Y-80049179D01*
X151485805Y-80073596D01*
X151411625Y-80113246D01*
X151346606Y-80166606D01*
X151293246Y-80231625D01*
X151253596Y-80305805D01*
X151229179Y-80386294D01*
X151220935Y-80470001D01*
X151220935Y-83640001D01*
X151229179Y-83723708D01*
X151253596Y-83804197D01*
X151293246Y-83878377D01*
X151346606Y-83943396D01*
X151411625Y-83996756D01*
X151485805Y-84036406D01*
X151566294Y-84060823D01*
X151650001Y-84069067D01*
X152673001Y-84069067D01*
X152673000Y-84423000D01*
X151933241Y-84423000D01*
X151899999Y-84419726D01*
X151866757Y-84423000D01*
X151866748Y-84423000D01*
X151767285Y-84432796D01*
X151639670Y-84471508D01*
X151522059Y-84534372D01*
X151418973Y-84618973D01*
X151397769Y-84644809D01*
X151052000Y-84990578D01*
X151052000Y-77822108D01*
X151085513Y-77480319D01*
X151178352Y-77172821D01*
X151329150Y-76889211D01*
X151532166Y-76640289D01*
X151779662Y-76435543D01*
X152062215Y-76282767D01*
X152369059Y-76187783D01*
X152709514Y-76152000D01*
X168177892Y-76152000D01*
X168519681Y-76185513D01*
%TD*%
M02*
