%TF.GenerationSoftware,KiCad,Pcbnew,(5.1.6)-1*%
%TF.CreationDate,2022-09-22T09:58:55-04:00*%
%TF.ProjectId,EXT_BATT_3V-6V,4558545f-4241-4545-945f-33562d36562e,rev?*%
%TF.SameCoordinates,Original*%
%TF.FileFunction,Legend,Bot*%
%TF.FilePolarity,Positive*%
%FSLAX46Y46*%
G04 Gerber Fmt 4.6, Leading zero omitted, Abs format (unit mm)*
G04 Created by KiCad (PCBNEW (5.1.6)-1) date 2022-09-22 09:58:55*
%MOMM*%
%LPD*%
G01*
G04 APERTURE LIST*
%ADD10C,0.125000*%
%ADD11C,0.150000*%
%ADD12C,0.100000*%
%ADD13C,0.200000*%
G04 APERTURE END LIST*
D10*
X154726190Y-79790476D02*
X155083333Y-79790476D01*
X155154761Y-79766666D01*
X155202380Y-79719047D01*
X155226190Y-79647619D01*
X155226190Y-79600000D01*
X155226190Y-80266666D02*
X155226190Y-80028571D01*
X154726190Y-80028571D01*
X155178571Y-80719047D02*
X155202380Y-80695238D01*
X155226190Y-80623809D01*
X155226190Y-80576190D01*
X155202380Y-80504761D01*
X155154761Y-80457142D01*
X155107142Y-80433333D01*
X155011904Y-80409523D01*
X154940476Y-80409523D01*
X154845238Y-80433333D01*
X154797619Y-80457142D01*
X154750000Y-80504761D01*
X154726190Y-80576190D01*
X154726190Y-80623809D01*
X154750000Y-80695238D01*
X154773809Y-80719047D01*
X154726190Y-81076190D02*
X155083333Y-81076190D01*
X155154761Y-81052380D01*
X155202380Y-81004761D01*
X155226190Y-80933333D01*
X155226190Y-80885714D01*
X155226190Y-81552380D02*
X155226190Y-81314285D01*
X154726190Y-81314285D01*
X155178571Y-82004761D02*
X155202380Y-81980952D01*
X155226190Y-81909523D01*
X155226190Y-81861904D01*
X155202380Y-81790476D01*
X155154761Y-81742857D01*
X155107142Y-81719047D01*
X155011904Y-81695238D01*
X154940476Y-81695238D01*
X154845238Y-81719047D01*
X154797619Y-81742857D01*
X154750000Y-81790476D01*
X154726190Y-81861904D01*
X154726190Y-81909523D01*
X154750000Y-81980952D01*
X154773809Y-82004761D01*
X154726190Y-82361904D02*
X155083333Y-82361904D01*
X155154761Y-82338095D01*
X155202380Y-82290476D01*
X155226190Y-82219047D01*
X155226190Y-82171428D01*
X155226190Y-82838095D02*
X155226190Y-82600000D01*
X154726190Y-82600000D01*
X155178571Y-83290476D02*
X155202380Y-83266666D01*
X155226190Y-83195238D01*
X155226190Y-83147619D01*
X155202380Y-83076190D01*
X155154761Y-83028571D01*
X155107142Y-83004761D01*
X155011904Y-82980952D01*
X154940476Y-82980952D01*
X154845238Y-83004761D01*
X154797619Y-83028571D01*
X154750000Y-83076190D01*
X154726190Y-83147619D01*
X154726190Y-83195238D01*
X154750000Y-83266666D01*
X154773809Y-83290476D01*
X154726190Y-83647619D02*
X155083333Y-83647619D01*
X155154761Y-83623809D01*
X155202380Y-83576190D01*
X155226190Y-83504761D01*
X155226190Y-83457142D01*
X155226190Y-84123809D02*
X155226190Y-83885714D01*
X154726190Y-83885714D01*
X155178571Y-84576190D02*
X155202380Y-84552380D01*
X155226190Y-84480952D01*
X155226190Y-84433333D01*
X155202380Y-84361904D01*
X155154761Y-84314285D01*
X155107142Y-84290476D01*
X155011904Y-84266666D01*
X154940476Y-84266666D01*
X154845238Y-84290476D01*
X154797619Y-84314285D01*
X154750000Y-84361904D01*
X154726190Y-84433333D01*
X154726190Y-84480952D01*
X154750000Y-84552380D01*
X154773809Y-84576190D01*
D11*
X165133333Y-92660714D02*
X164942857Y-93327380D01*
X164752380Y-92851190D01*
X164561904Y-93327380D01*
X164371428Y-92660714D01*
X163990476Y-93327380D02*
X163990476Y-92660714D01*
X163990476Y-92327380D02*
X164038095Y-92375000D01*
X163990476Y-92422619D01*
X163942857Y-92375000D01*
X163990476Y-92327380D01*
X163990476Y-92422619D01*
X163514285Y-93327380D02*
X163514285Y-92660714D01*
X163514285Y-92851190D02*
X163466666Y-92755952D01*
X163419047Y-92708333D01*
X163323809Y-92660714D01*
X163228571Y-92660714D01*
X162514285Y-93279761D02*
X162609523Y-93327380D01*
X162800000Y-93327380D01*
X162895238Y-93279761D01*
X162942857Y-93184523D01*
X162942857Y-92803571D01*
X162895238Y-92708333D01*
X162800000Y-92660714D01*
X162609523Y-92660714D01*
X162514285Y-92708333D01*
X162466666Y-92803571D01*
X162466666Y-92898809D01*
X162942857Y-92994047D01*
X162180952Y-92660714D02*
X161800000Y-92660714D01*
X162038095Y-92327380D02*
X162038095Y-93184523D01*
X161990476Y-93279761D01*
X161895238Y-93327380D01*
X161800000Y-93327380D01*
X161038095Y-93327380D02*
X161038095Y-92803571D01*
X161085714Y-92708333D01*
X161180952Y-92660714D01*
X161371428Y-92660714D01*
X161466666Y-92708333D01*
X161038095Y-93279761D02*
X161133333Y-93327380D01*
X161371428Y-93327380D01*
X161466666Y-93279761D01*
X161514285Y-93184523D01*
X161514285Y-93089285D01*
X161466666Y-92994047D01*
X161371428Y-92946428D01*
X161133333Y-92946428D01*
X161038095Y-92898809D01*
X160561904Y-92660714D02*
X160561904Y-93660714D01*
X160561904Y-92708333D02*
X160466666Y-92660714D01*
X160276190Y-92660714D01*
X160180952Y-92708333D01*
X160133333Y-92755952D01*
X160085714Y-92851190D01*
X160085714Y-93136904D01*
X160133333Y-93232142D01*
X160180952Y-93279761D01*
X160276190Y-93327380D01*
X160466666Y-93327380D01*
X160561904Y-93279761D01*
X158942857Y-92422619D02*
X158895238Y-92375000D01*
X158800000Y-92327380D01*
X158561904Y-92327380D01*
X158466666Y-92375000D01*
X158419047Y-92422619D01*
X158371428Y-92517857D01*
X158371428Y-92613095D01*
X158419047Y-92755952D01*
X158990476Y-93327380D01*
X158371428Y-93327380D01*
X157752380Y-92327380D02*
X157657142Y-92327380D01*
X157561904Y-92375000D01*
X157514285Y-92422619D01*
X157466666Y-92517857D01*
X157419047Y-92708333D01*
X157419047Y-92946428D01*
X157466666Y-93136904D01*
X157514285Y-93232142D01*
X157561904Y-93279761D01*
X157657142Y-93327380D01*
X157752380Y-93327380D01*
X157847619Y-93279761D01*
X157895238Y-93232142D01*
X157942857Y-93136904D01*
X157990476Y-92946428D01*
X157990476Y-92708333D01*
X157942857Y-92517857D01*
X157895238Y-92422619D01*
X157847619Y-92375000D01*
X157752380Y-92327380D01*
X157038095Y-92422619D02*
X156990476Y-92375000D01*
X156895238Y-92327380D01*
X156657142Y-92327380D01*
X156561904Y-92375000D01*
X156514285Y-92422619D01*
X156466666Y-92517857D01*
X156466666Y-92613095D01*
X156514285Y-92755952D01*
X157085714Y-93327380D01*
X156466666Y-93327380D01*
X156085714Y-92422619D02*
X156038095Y-92375000D01*
X155942857Y-92327380D01*
X155704761Y-92327380D01*
X155609523Y-92375000D01*
X155561904Y-92422619D01*
X155514285Y-92517857D01*
X155514285Y-92613095D01*
X155561904Y-92755952D01*
X156133333Y-93327380D01*
X155514285Y-93327380D01*
X161895238Y-94977380D02*
X161895238Y-94310714D01*
X161895238Y-94501190D02*
X161847619Y-94405952D01*
X161800000Y-94358333D01*
X161704761Y-94310714D01*
X161609523Y-94310714D01*
X160895238Y-94929761D02*
X160990476Y-94977380D01*
X161180952Y-94977380D01*
X161276190Y-94929761D01*
X161323809Y-94834523D01*
X161323809Y-94453571D01*
X161276190Y-94358333D01*
X161180952Y-94310714D01*
X160990476Y-94310714D01*
X160895238Y-94358333D01*
X160847619Y-94453571D01*
X160847619Y-94548809D01*
X161323809Y-94644047D01*
X160514285Y-94310714D02*
X160276190Y-94977380D01*
X160038095Y-94310714D01*
X159657142Y-94882142D02*
X159609523Y-94929761D01*
X159657142Y-94977380D01*
X159704761Y-94929761D01*
X159657142Y-94882142D01*
X159657142Y-94977380D01*
X158990476Y-93977380D02*
X158895238Y-93977380D01*
X158800000Y-94025000D01*
X158752380Y-94072619D01*
X158704761Y-94167857D01*
X158657142Y-94358333D01*
X158657142Y-94596428D01*
X158704761Y-94786904D01*
X158752380Y-94882142D01*
X158800000Y-94929761D01*
X158895238Y-94977380D01*
X158990476Y-94977380D01*
X159085714Y-94929761D01*
X159133333Y-94882142D01*
X159180952Y-94786904D01*
X159228571Y-94596428D01*
X159228571Y-94358333D01*
X159180952Y-94167857D01*
X159133333Y-94072619D01*
X159085714Y-94025000D01*
X158990476Y-93977380D01*
X162595238Y-87757142D02*
X162642857Y-87804761D01*
X162785714Y-87852380D01*
X162880952Y-87852380D01*
X163023809Y-87804761D01*
X163119047Y-87709523D01*
X163166666Y-87614285D01*
X163214285Y-87423809D01*
X163214285Y-87280952D01*
X163166666Y-87090476D01*
X163119047Y-86995238D01*
X163023809Y-86900000D01*
X162880952Y-86852380D01*
X162785714Y-86852380D01*
X162642857Y-86900000D01*
X162595238Y-86947619D01*
X161595238Y-87852380D02*
X161928571Y-87376190D01*
X162166666Y-87852380D02*
X162166666Y-86852380D01*
X161785714Y-86852380D01*
X161690476Y-86900000D01*
X161642857Y-86947619D01*
X161595238Y-87042857D01*
X161595238Y-87185714D01*
X161642857Y-87280952D01*
X161690476Y-87328571D01*
X161785714Y-87376190D01*
X162166666Y-87376190D01*
X160642857Y-87852380D02*
X161214285Y-87852380D01*
X160928571Y-87852380D02*
X160928571Y-86852380D01*
X161023809Y-86995238D01*
X161119047Y-87090476D01*
X161214285Y-87138095D01*
X160261904Y-86947619D02*
X160214285Y-86900000D01*
X160119047Y-86852380D01*
X159880952Y-86852380D01*
X159785714Y-86900000D01*
X159738095Y-86947619D01*
X159690476Y-87042857D01*
X159690476Y-87138095D01*
X159738095Y-87280952D01*
X160309523Y-87852380D01*
X159690476Y-87852380D01*
X159309523Y-86947619D02*
X159261904Y-86900000D01*
X159166666Y-86852380D01*
X158928571Y-86852380D01*
X158833333Y-86900000D01*
X158785714Y-86947619D01*
X158738095Y-87042857D01*
X158738095Y-87138095D01*
X158785714Y-87280952D01*
X159357142Y-87852380D01*
X158738095Y-87852380D01*
X158119047Y-86852380D02*
X158023809Y-86852380D01*
X157928571Y-86900000D01*
X157880952Y-86947619D01*
X157833333Y-87042857D01*
X157785714Y-87233333D01*
X157785714Y-87471428D01*
X157833333Y-87661904D01*
X157880952Y-87757142D01*
X157928571Y-87804761D01*
X158023809Y-87852380D01*
X158119047Y-87852380D01*
X158214285Y-87804761D01*
X158261904Y-87757142D01*
X158309523Y-87661904D01*
X158357142Y-87471428D01*
X158357142Y-87233333D01*
X158309523Y-87042857D01*
X158261904Y-86947619D01*
X158214285Y-86900000D01*
X158119047Y-86852380D01*
X164580952Y-94571428D02*
X163819047Y-94571428D01*
X156980952Y-94571428D02*
X156219047Y-94571428D01*
X156600000Y-94952380D02*
X156600000Y-94190476D01*
X163392857Y-84616071D02*
X162821428Y-84616071D01*
X162000000Y-84401785D02*
X161714285Y-84401785D01*
X161892857Y-84151785D02*
X161892857Y-84794642D01*
X161857142Y-84866071D01*
X161785714Y-84901785D01*
X161714285Y-84901785D01*
X161178571Y-84866071D02*
X161250000Y-84901785D01*
X161392857Y-84901785D01*
X161464285Y-84866071D01*
X161500000Y-84794642D01*
X161500000Y-84508928D01*
X161464285Y-84437500D01*
X161392857Y-84401785D01*
X161250000Y-84401785D01*
X161178571Y-84437500D01*
X161142857Y-84508928D01*
X161142857Y-84580357D01*
X161500000Y-84651785D01*
X160821428Y-84901785D02*
X160821428Y-84401785D01*
X160821428Y-84544642D02*
X160785714Y-84473214D01*
X160750000Y-84437500D01*
X160678571Y-84401785D01*
X160607142Y-84401785D01*
X160357142Y-84901785D02*
X160357142Y-84401785D01*
X160357142Y-84473214D02*
X160321428Y-84437500D01*
X160250000Y-84401785D01*
X160142857Y-84401785D01*
X160071428Y-84437500D01*
X160035714Y-84508928D01*
X160035714Y-84901785D01*
X160035714Y-84508928D02*
X160000000Y-84437500D01*
X159928571Y-84401785D01*
X159821428Y-84401785D01*
X159750000Y-84437500D01*
X159714285Y-84508928D01*
X159714285Y-84901785D01*
X159357142Y-84901785D02*
X159357142Y-84401785D01*
X159357142Y-84151785D02*
X159392857Y-84187500D01*
X159357142Y-84223214D01*
X159321428Y-84187500D01*
X159357142Y-84151785D01*
X159357142Y-84223214D01*
X159000000Y-84401785D02*
X159000000Y-84901785D01*
X159000000Y-84473214D02*
X158964285Y-84437500D01*
X158892857Y-84401785D01*
X158785714Y-84401785D01*
X158714285Y-84437500D01*
X158678571Y-84508928D01*
X158678571Y-84901785D01*
X158000000Y-84901785D02*
X158000000Y-84508928D01*
X158035714Y-84437500D01*
X158107142Y-84401785D01*
X158250000Y-84401785D01*
X158321428Y-84437500D01*
X158000000Y-84866071D02*
X158071428Y-84901785D01*
X158250000Y-84901785D01*
X158321428Y-84866071D01*
X158357142Y-84794642D01*
X158357142Y-84723214D01*
X158321428Y-84651785D01*
X158250000Y-84616071D01*
X158071428Y-84616071D01*
X158000000Y-84580357D01*
X157535714Y-84901785D02*
X157607142Y-84866071D01*
X157642857Y-84794642D01*
X157642857Y-84151785D01*
X161410714Y-86176785D02*
X161410714Y-85426785D01*
X161410714Y-86141071D02*
X161482142Y-86176785D01*
X161625000Y-86176785D01*
X161696428Y-86141071D01*
X161732142Y-86105357D01*
X161767857Y-86033928D01*
X161767857Y-85819642D01*
X161732142Y-85748214D01*
X161696428Y-85712500D01*
X161625000Y-85676785D01*
X161482142Y-85676785D01*
X161410714Y-85712500D01*
X160946428Y-86176785D02*
X161017857Y-86141071D01*
X161053571Y-86105357D01*
X161089285Y-86033928D01*
X161089285Y-85819642D01*
X161053571Y-85748214D01*
X161017857Y-85712500D01*
X160946428Y-85676785D01*
X160839285Y-85676785D01*
X160767857Y-85712500D01*
X160732142Y-85748214D01*
X160696428Y-85819642D01*
X160696428Y-86033928D01*
X160732142Y-86105357D01*
X160767857Y-86141071D01*
X160839285Y-86176785D01*
X160946428Y-86176785D01*
X160446428Y-85676785D02*
X160303571Y-86176785D01*
X160160714Y-85819642D01*
X160017857Y-86176785D01*
X159875000Y-85676785D01*
X159589285Y-85676785D02*
X159589285Y-86176785D01*
X159589285Y-85748214D02*
X159553571Y-85712500D01*
X159482142Y-85676785D01*
X159375000Y-85676785D01*
X159303571Y-85712500D01*
X159267857Y-85783928D01*
X159267857Y-86176785D01*
X167795238Y-77279761D02*
X167652380Y-77327380D01*
X167414285Y-77327380D01*
X167319047Y-77279761D01*
X167271428Y-77232142D01*
X167223809Y-77136904D01*
X167223809Y-77041666D01*
X167271428Y-76946428D01*
X167319047Y-76898809D01*
X167414285Y-76851190D01*
X167604761Y-76803571D01*
X167700000Y-76755952D01*
X167747619Y-76708333D01*
X167795238Y-76613095D01*
X167795238Y-76517857D01*
X167747619Y-76422619D01*
X167700000Y-76375000D01*
X167604761Y-76327380D01*
X167366666Y-76327380D01*
X167223809Y-76375000D01*
X166795238Y-77327380D02*
X166795238Y-76660714D01*
X166795238Y-76327380D02*
X166842857Y-76375000D01*
X166795238Y-76422619D01*
X166747619Y-76375000D01*
X166795238Y-76327380D01*
X166795238Y-76422619D01*
X166319047Y-76660714D02*
X166319047Y-77327380D01*
X166319047Y-76755952D02*
X166271428Y-76708333D01*
X166176190Y-76660714D01*
X166033333Y-76660714D01*
X165938095Y-76708333D01*
X165890476Y-76803571D01*
X165890476Y-77327380D01*
X164985714Y-76660714D02*
X164985714Y-77470238D01*
X165033333Y-77565476D01*
X165080952Y-77613095D01*
X165176190Y-77660714D01*
X165319047Y-77660714D01*
X165414285Y-77613095D01*
X164985714Y-77279761D02*
X165080952Y-77327380D01*
X165271428Y-77327380D01*
X165366666Y-77279761D01*
X165414285Y-77232142D01*
X165461904Y-77136904D01*
X165461904Y-76851190D01*
X165414285Y-76755952D01*
X165366666Y-76708333D01*
X165271428Y-76660714D01*
X165080952Y-76660714D01*
X164985714Y-76708333D01*
X164366666Y-77327380D02*
X164461904Y-77279761D01*
X164509523Y-77184523D01*
X164509523Y-76327380D01*
X163604761Y-77279761D02*
X163700000Y-77327380D01*
X163890476Y-77327380D01*
X163985714Y-77279761D01*
X164033333Y-77184523D01*
X164033333Y-76803571D01*
X163985714Y-76708333D01*
X163890476Y-76660714D01*
X163700000Y-76660714D01*
X163604761Y-76708333D01*
X163557142Y-76803571D01*
X163557142Y-76898809D01*
X164033333Y-76994047D01*
X162033333Y-76803571D02*
X161890476Y-76851190D01*
X161842857Y-76898809D01*
X161795238Y-76994047D01*
X161795238Y-77136904D01*
X161842857Y-77232142D01*
X161890476Y-77279761D01*
X161985714Y-77327380D01*
X162366666Y-77327380D01*
X162366666Y-76327380D01*
X162033333Y-76327380D01*
X161938095Y-76375000D01*
X161890476Y-76422619D01*
X161842857Y-76517857D01*
X161842857Y-76613095D01*
X161890476Y-76708333D01*
X161938095Y-76755952D01*
X162033333Y-76803571D01*
X162366666Y-76803571D01*
X160938095Y-77327380D02*
X160938095Y-76803571D01*
X160985714Y-76708333D01*
X161080952Y-76660714D01*
X161271428Y-76660714D01*
X161366666Y-76708333D01*
X160938095Y-77279761D02*
X161033333Y-77327380D01*
X161271428Y-77327380D01*
X161366666Y-77279761D01*
X161414285Y-77184523D01*
X161414285Y-77089285D01*
X161366666Y-76994047D01*
X161271428Y-76946428D01*
X161033333Y-76946428D01*
X160938095Y-76898809D01*
X160604761Y-76660714D02*
X160223809Y-76660714D01*
X160461904Y-76327380D02*
X160461904Y-77184523D01*
X160414285Y-77279761D01*
X160319047Y-77327380D01*
X160223809Y-77327380D01*
X160033333Y-76660714D02*
X159652380Y-76660714D01*
X159890476Y-76327380D02*
X159890476Y-77184523D01*
X159842857Y-77279761D01*
X159747619Y-77327380D01*
X159652380Y-77327380D01*
X158938095Y-77279761D02*
X159033333Y-77327380D01*
X159223809Y-77327380D01*
X159319047Y-77279761D01*
X159366666Y-77184523D01*
X159366666Y-76803571D01*
X159319047Y-76708333D01*
X159223809Y-76660714D01*
X159033333Y-76660714D01*
X158938095Y-76708333D01*
X158890476Y-76803571D01*
X158890476Y-76898809D01*
X159366666Y-76994047D01*
X158461904Y-77327380D02*
X158461904Y-76660714D01*
X158461904Y-76851190D02*
X158414285Y-76755952D01*
X158366666Y-76708333D01*
X158271428Y-76660714D01*
X158176190Y-76660714D01*
X157938095Y-76660714D02*
X157700000Y-77327380D01*
X157461904Y-76660714D02*
X157700000Y-77327380D01*
X157795238Y-77565476D01*
X157842857Y-77613095D01*
X157938095Y-77660714D01*
X156033333Y-77708333D02*
X156080952Y-77660714D01*
X156176190Y-77517857D01*
X156223809Y-77422619D01*
X156271428Y-77279761D01*
X156319047Y-77041666D01*
X156319047Y-76851190D01*
X156271428Y-76613095D01*
X156223809Y-76470238D01*
X156176190Y-76375000D01*
X156080952Y-76232142D01*
X156033333Y-76184523D01*
X155747619Y-76327380D02*
X155128571Y-76327380D01*
X155461904Y-76708333D01*
X155319047Y-76708333D01*
X155223809Y-76755952D01*
X155176190Y-76803571D01*
X155128571Y-76898809D01*
X155128571Y-77136904D01*
X155176190Y-77232142D01*
X155223809Y-77279761D01*
X155319047Y-77327380D01*
X155604761Y-77327380D01*
X155700000Y-77279761D01*
X155747619Y-77232142D01*
X154842857Y-76327380D02*
X154509523Y-77327380D01*
X154176190Y-76327380D01*
X153938095Y-77708333D02*
X153890476Y-77660714D01*
X153795238Y-77517857D01*
X153747619Y-77422619D01*
X153700000Y-77279761D01*
X153652380Y-77041666D01*
X153652380Y-76851190D01*
X153700000Y-76613095D01*
X153747619Y-76470238D01*
X153795238Y-76375000D01*
X153890476Y-76232142D01*
X153938095Y-76184523D01*
X167390476Y-78977380D02*
X167390476Y-77977380D01*
X167009523Y-77977380D01*
X166914285Y-78025000D01*
X166866666Y-78072619D01*
X166819047Y-78167857D01*
X166819047Y-78310714D01*
X166866666Y-78405952D01*
X166914285Y-78453571D01*
X167009523Y-78501190D01*
X167390476Y-78501190D01*
X166247619Y-78977380D02*
X166342857Y-78929761D01*
X166390476Y-78882142D01*
X166438095Y-78786904D01*
X166438095Y-78501190D01*
X166390476Y-78405952D01*
X166342857Y-78358333D01*
X166247619Y-78310714D01*
X166104761Y-78310714D01*
X166009523Y-78358333D01*
X165961904Y-78405952D01*
X165914285Y-78501190D01*
X165914285Y-78786904D01*
X165961904Y-78882142D01*
X166009523Y-78929761D01*
X166104761Y-78977380D01*
X166247619Y-78977380D01*
X165485714Y-78310714D02*
X165485714Y-79310714D01*
X165485714Y-78358333D02*
X165390476Y-78310714D01*
X165200000Y-78310714D01*
X165104761Y-78358333D01*
X165057142Y-78405952D01*
X165009523Y-78501190D01*
X165009523Y-78786904D01*
X165057142Y-78882142D01*
X165104761Y-78929761D01*
X165200000Y-78977380D01*
X165390476Y-78977380D01*
X165485714Y-78929761D01*
X164152380Y-78310714D02*
X164152380Y-78977380D01*
X164580952Y-78310714D02*
X164580952Y-78834523D01*
X164533333Y-78929761D01*
X164438095Y-78977380D01*
X164295238Y-78977380D01*
X164200000Y-78929761D01*
X164152380Y-78882142D01*
X163533333Y-78977380D02*
X163628571Y-78929761D01*
X163676190Y-78834523D01*
X163676190Y-77977380D01*
X162723809Y-78977380D02*
X162723809Y-78453571D01*
X162771428Y-78358333D01*
X162866666Y-78310714D01*
X163057142Y-78310714D01*
X163152380Y-78358333D01*
X162723809Y-78929761D02*
X162819047Y-78977380D01*
X163057142Y-78977380D01*
X163152380Y-78929761D01*
X163200000Y-78834523D01*
X163200000Y-78739285D01*
X163152380Y-78644047D01*
X163057142Y-78596428D01*
X162819047Y-78596428D01*
X162723809Y-78548809D01*
X162390476Y-78310714D02*
X162009523Y-78310714D01*
X162247619Y-77977380D02*
X162247619Y-78834523D01*
X162200000Y-78929761D01*
X162104761Y-78977380D01*
X162009523Y-78977380D01*
X161295238Y-78929761D02*
X161390476Y-78977380D01*
X161580952Y-78977380D01*
X161676190Y-78929761D01*
X161723809Y-78834523D01*
X161723809Y-78453571D01*
X161676190Y-78358333D01*
X161580952Y-78310714D01*
X161390476Y-78310714D01*
X161295238Y-78358333D01*
X161247619Y-78453571D01*
X161247619Y-78548809D01*
X161723809Y-78644047D01*
X160200000Y-77977380D02*
X159628571Y-77977380D01*
X159914285Y-78977380D02*
X159914285Y-77977380D01*
X159295238Y-78977380D02*
X159295238Y-77977380D01*
X158866666Y-78977380D02*
X158866666Y-78453571D01*
X158914285Y-78358333D01*
X159009523Y-78310714D01*
X159152380Y-78310714D01*
X159247619Y-78358333D01*
X159295238Y-78405952D01*
X158390476Y-78977380D02*
X158390476Y-78310714D01*
X158390476Y-77977380D02*
X158438095Y-78025000D01*
X158390476Y-78072619D01*
X158342857Y-78025000D01*
X158390476Y-77977380D01*
X158390476Y-78072619D01*
X157961904Y-78929761D02*
X157866666Y-78977380D01*
X157676190Y-78977380D01*
X157580952Y-78929761D01*
X157533333Y-78834523D01*
X157533333Y-78786904D01*
X157580952Y-78691666D01*
X157676190Y-78644047D01*
X157819047Y-78644047D01*
X157914285Y-78596428D01*
X157961904Y-78501190D01*
X157961904Y-78453571D01*
X157914285Y-78358333D01*
X157819047Y-78310714D01*
X157676190Y-78310714D01*
X157580952Y-78358333D01*
X156152380Y-77977380D02*
X155961904Y-77977380D01*
X155866666Y-78025000D01*
X155771428Y-78120238D01*
X155723809Y-78310714D01*
X155723809Y-78644047D01*
X155771428Y-78834523D01*
X155866666Y-78929761D01*
X155961904Y-78977380D01*
X156152380Y-78977380D01*
X156247619Y-78929761D01*
X156342857Y-78834523D01*
X156390476Y-78644047D01*
X156390476Y-78310714D01*
X156342857Y-78120238D01*
X156247619Y-78025000D01*
X156152380Y-77977380D01*
X155295238Y-78310714D02*
X155295238Y-78977380D01*
X155295238Y-78405952D02*
X155247619Y-78358333D01*
X155152380Y-78310714D01*
X155009523Y-78310714D01*
X154914285Y-78358333D01*
X154866666Y-78453571D01*
X154866666Y-78977380D01*
X154009523Y-78929761D02*
X154104761Y-78977380D01*
X154295238Y-78977380D01*
X154390476Y-78929761D01*
X154438095Y-78834523D01*
X154438095Y-78453571D01*
X154390476Y-78358333D01*
X154295238Y-78310714D01*
X154104761Y-78310714D01*
X154009523Y-78358333D01*
X153961904Y-78453571D01*
X153961904Y-78548809D01*
X154438095Y-78644047D01*
D12*
%TO.C,H1*%
X155540001Y-86505001D02*
X155040001Y-87055001D01*
X155040001Y-87055001D02*
X156040001Y-87855001D01*
X156040001Y-87855001D02*
X156540001Y-87305001D01*
X164540001Y-87305001D02*
X165040001Y-87855001D01*
X165040001Y-87855001D02*
X166040001Y-87055001D01*
X166040001Y-87055001D02*
X165540001Y-86505001D01*
D13*
%TO.C,IC1*%
X150950000Y-88125000D02*
X150950000Y-88675000D01*
X150950000Y-88675000D02*
X153850000Y-88675000D01*
X153850000Y-88675000D02*
X153850000Y-88125000D01*
X153850000Y-88125000D02*
X150950000Y-88125000D01*
X150900000Y-86525000D02*
X150900000Y-87775000D01*
D11*
X155139285Y-87667857D02*
X154389285Y-87667857D01*
X155067857Y-88453571D02*
X155103571Y-88417857D01*
X155139285Y-88310714D01*
X155139285Y-88239285D01*
X155103571Y-88132142D01*
X155032142Y-88060714D01*
X154960714Y-88025000D01*
X154817857Y-87989285D01*
X154710714Y-87989285D01*
X154567857Y-88025000D01*
X154496428Y-88060714D01*
X154425000Y-88132142D01*
X154389285Y-88239285D01*
X154389285Y-88310714D01*
X154425000Y-88417857D01*
X154460714Y-88453571D01*
X155139285Y-89167857D02*
X155139285Y-88739285D01*
X155139285Y-88953571D02*
X154389285Y-88953571D01*
X154496428Y-88882142D01*
X154567857Y-88810714D01*
X154603571Y-88739285D01*
%TD*%
M02*
